<?xml version="1.0" encoding="utf-8"?>
<!-- Generator: Adobe Illustrator 22.1.0, SVG Export Plug-In . SVG Version: 6.00 Build 0)  -->
<svg version="1.1" id="Layer_1" xmlns="http://www.w3.org/2000/svg" xmlns:xlink="http://www.w3.org/1999/xlink" x="0px" y="0px"
	 viewBox="0 0 85 98.3" enable-background="new 0 0 85 98.3" xml:space="preserve">
<g>
	<path fill="#EC3A25" d="M23.1,58.4c3.8-1.5,8.2-0.4,10.5,2.6c2.6,3.4,2.8,7.4,0.4,10.7c-1.5,2-2.5,2-4.8,1c-1.1-0.5-2.7-0.1-4-0.2
		c-0.5-0.1-1.1-0.4-1.6-0.8C22.2,70.5,21,69,19.5,68c-1.8-1.2-2.3-2.6-1.4-4.5C19.1,61.1,20.7,59.4,23.1,58.4z"/>
	<path fill="#1857A6" d="M62.5,32c-16.7,0.7-32.1,1.4-47.3,2.1C13,18.4,24.6,4.9,39.4,5.2c3,0.1,6.4,1.3,9,3
		C56.8,13.4,59.1,22.3,62.5,32z"/>
	<path fill="#F4AE3B" d="M15.2,43.3c15.4-2.3,30.4-4.6,45.7-7c1.8,12.4,5,23.9,4.4,36.6C47.5,64.6,29.6,57.6,15.2,43.3z"/>
	<path fill="#F38EAD" d="M42.5,93c-4.4-0.6-8.8-1-13.1-1.9c-3.7-0.8-5.2-3-5.4-6.6c-0.3-6.6,1-8.4,8.1-8.8c7-0.4,14.1-0.5,21.1-0.1
		c6.6,0.3,11.3,5.2,11.6,11.3c0,0.5-0.8,1.5-1,1.5c-2.8-0.9-4.1,1.5-5.6,2.7c-2,1.8-4.3,2.2-6.7,2.2c-3,0-6.1-0.3-9.1-0.5
		C42.6,92.8,42.6,92.9,42.5,93z"/>
</g>
</svg>
