<?xml version="1.0" encoding="utf-8"?>
<!-- Generator: Adobe Illustrator 22.1.0, SVG Export Plug-In . SVG Version: 6.00 Build 0)  -->
<svg version="1.1" id="Layer_1" xmlns="http://www.w3.org/2000/svg" xmlns:xlink="http://www.w3.org/1999/xlink" x="0px" y="0px"
	 viewBox="0 0 85 98.3" enable-background="new 0 0 85 98.3" xml:space="preserve">
<path fill="#EC3A25" d="M71.9,62.5c3.2,1.7,5.1,4.4,6.3,7.6c1.9,4.9-0.2,9.6-4.7,11.9c-7.9,4.1-16.3-3.4-16.3-11.2
	c0-3.2,1.7-5.1,4.1-6.5c1-0.6,2-1,3.6-1.7c-4-1.6-7-3.5-7.5-8.1c-0.5-5,3.2-6.6,6.2-8.7c-1.6-1.3-3.2-2.2-4.5-3.5
	C55.2,38.2,56.8,31,62,28.7c4.9-2.2,9.3-2.4,13.5,1.7c2.4,2.4,4.2,5.1,3.5,8.7c-0.6,3.3-2.9,5.2-5.9,6.1c-0.3,0.1-0.6,0.2-0.8,0.4
	c-0.1,0-0.1,0.1-0.4,0.6c5.6,0.6,7.5,4,6.9,9.6C78.3,60,75.3,61.1,71.9,62.5z"/>
<path fill="#EC3A25" d="M42.5,61c-1.3,0-2.6,0-3.9,0.1c-1.2,0.1-2.2-0.2-3.2-0.9c-0.9-0.7-2-1.2-2.9-2c-1.7-1.4-3-3.2-4.1-5.2
	c-0.4-0.7-0.5-1.4-1.1-2c-0.1-0.1-0.1-0.4-0.1-0.5c0.2-0.9,0.5-1.8,0.6-2.8c0.2-1.5,1.2-2.6,1.9-3.8c0.7-1.2,1.6-2.2,2.5-3.2
	c0.4-0.5,1-0.8,1.5-1.3c0.9-0.8,2-0.8,3.1-0.5c1.5,0.4,3,0.6,4.4,1.5c0.8,0.5,1.7,0.8,2.5,1c1.6,0.4,2.6,1.5,3.5,2.8
	c0.7,1,1.4,1.9,2,2.9c0.4,0.7,0.5,1.6,0.3,2.4c-0.1,0.2,0,0.5,0.1,0.6c0.7,0.7,0.9,1.6,0.9,2.6c-0.1,2.5-1.3,4.3-2.5,6.2
	c-0.1,0.2-0.2,0.3-0.4,0.4c-1.6,0.5-3.1,1.3-4.8,1.4C42.6,61,42.6,61,42.5,61C42.5,61,42.5,61,42.5,61z"/>
<path fill="#F38EAD" d="M15.2,65.3c1.6,0.4,3.2,0.7,4.8,1.1c2.6,0.5,4.6,2.2,6.8,3.4c1,0.5,1.8,1.4,2.5,2.3c0.8,1,1,2.2,0.7,3.6
	c-0.3,1.6-1.2,2.5-2.1,3.6c-1.4,1.8-3.2,3-5.2,4c-0.4,0.2-0.9,0.2-1.4,0.1c-1.5-0.2-3.1-0.4-4.6-0.9c-1.7-0.5-3.3-1.2-4.9-2
	c-1.8-1-3-2.6-3.7-4.6c-0.3-0.7-0.5-1.3-0.9-1.9c-0.6-0.8-0.8-1.8-0.6-2.9c0.3-1.8,0.7-3.5,2.3-4.3c1.4-0.7,3-0.9,4.5-1.3
	C14.1,65.5,14.6,65.5,15.2,65.3C15.2,65.4,15.2,65.4,15.2,65.3z"/>
<path fill="#F38EAD" d="M17.3,41.5c1.3-0.1,2.5-0.1,3.8-0.2c1.3-0.2,1.9,0.8,2.5,1.7c1.2,2.2,1.5,4.6,1.7,7.1c0.1,1,0.2,2.1,0.2,3.1
	c0,0.5-0.2,1.1-0.4,1.6c-0.4,1-1,1.8-1.8,2.6c-1.8,1.6-3.9,2-6.1,2.2c-0.9,0.1-1.9,0.3-2.8,0.2c-0.8-0.1-1.7-0.3-2.4-0.7
	c-1.8-1-3.2-2.4-4.5-4c-0.9-1-1-2.3-1.3-3.6c-0.4-1.6-0.2-3,0.4-4.5c0.3-0.8,0.4-1.7,1.1-2.2c0.8-0.6,1.6-1.2,2.5-1.6
	c0.9-0.4,1.8-0.8,2.7-1.1c1.5-0.4,3-0.6,4.5-0.9C17.3,41.4,17.3,41.4,17.3,41.5z"/>
<path fill="#F38EAD" d="M45.5,83.9c-2.1-0.4-4.2-0.5-6-1.7c-1.2-0.8-2.6-1.3-3.8-2.1c-0.9-0.7-1.8-1.6-2.5-2.5
	c-0.4-0.5-0.6-1.2-0.9-1.9c-0.3-0.9-0.2-1.9,0.3-2.7c0.6-1.2,1.2-2.5,1.9-3.6c1-1.6,2.5-2.4,4.2-2.8c1.5-0.3,3-0.5,4.5-0.7
	c0.5-0.1,0.9,0,1.4,0c1.5,0.3,3.1,0.5,4.5,1.4c1,0.7,1.8,1.8,2.8,2.5c1,0.8,1.6,1.8,1.9,2.9c0.2,0.8,0.4,1.6,0.1,2.5
	c-0.2,0.7-0.2,1.5-0.4,2.2c-0.3,1.2-1.1,2.1-2,2.9c-0.1,0.1-0.2,0.1-0.3,0.3c-1.1,1.5-2.7,2.1-4.2,2.7
	C46.4,83.5,45.9,83.7,45.5,83.9z"/>
<path fill="#F38EAD" d="M29.6,30.2c-1.3,0.4-2.6,0.8-3.8,1.1c-1.6,0.4-3.2,0.3-4.8-0.1C20.4,31,20,30.4,19.5,30
	c-0.1-0.1-0.2-0.3-0.3-0.4c-2.1-1.5-2-3.9-2-6.2c0-1.3,0.5-2.6,1.5-3.7c0.9-1,1.7-2.1,2.9-2.7c0.7-0.4,1.3-0.8,1.9-1.1
	c0.5-0.2,1.1-0.3,1.6-0.4c1.2-0.3,2.4-0.5,3.6-0.8c1.5-0.3,2.6,0.6,3.6,1.5c1.5,1.4,2.5,3.3,3,5.3c0.4,1.5,0.5,3.1-0.4,4.6
	c-0.1,0.1-0.1,0.4-0.1,0.5c-0.1,0.4-0.3,0.8-0.4,1.2c0,0,0,0,0,0.1c-0.1,1.1-0.9,1.6-1.7,2c-0.3,0.1-0.6,0.3-1,0.4
	c-0.6,0.1-1.3,0.2-2,0.3C29.6,30.4,29.6,30.3,29.6,30.2z"/>
</svg>
