<?xml version="1.0" encoding="utf-8"?>
<!-- Generator: Adobe Illustrator 22.1.0, SVG Export Plug-In . SVG Version: 6.00 Build 0)  -->
<svg version="1.1" id="Layer_1" xmlns="http://www.w3.org/2000/svg" xmlns:xlink="http://www.w3.org/1999/xlink" x="0px" y="0px"
	 viewBox="0 0 85 98.3" enable-background="new 0 0 85 98.3" xml:space="preserve">
<path fill="#F4AE3B" d="M70.4,44.1c0.2,3.7-1.3,7-2.9,10.1c-5.1,10-13.7,16.6-23,22.2C39,79.7,32.9,78.8,27,77.1
	c-5.2-1.4-8.1-4.5-9.5-9.7c-1.3-4.8-3.2-9.4-3.3-14.5c-0.1-9.2,2.4-17.3,9.2-24c5.1-5,11-8.1,17.8-9.5c9.5-1.9,22.9,2.8,26.7,12.7
	c1.4,3.8,2.1,7.9,3.1,11.8C70.8,44,70.6,44.1,70.4,44.1z"/>
<path fill="#1857A6" d="M61.8,29.1c1.3-3.6,2.4-7,3.6-10.4c3.8,0.8,4.6,1.3,3.5,4.9c-1.6,5.2,2.3,6.9,5.2,8.9c2.5,1.7,3.9,4,4.5,6.5
	c1,3.8,1.5,7.9,1.6,11.9c0.1,4-5.5,8.7-9.5,8.6c-3.6-0.1-7.2-0.4-10.8-0.5c-2.3,0-4.4,0.5-6.2,2.4c-4.5,4.9-9.1,9.6-13.8,14.5
	c1.4,0.8,3.2,1.8,5.2,2.9c-1.5,1.9-2.9,3-5.3,2.1c-2.1-0.8-4.1-2.4-6.7-0.6c-0.6,0.4-2.4-1.1-3.9-1.8c0.5-1,0.9-1.7,1-1.8
	c-2.4-4-4.5-7.6-6.8-11.1c-0.7-1-1.9-1.8-3.1-2.2c-2.7-0.9-5.5-1.6-8.2-2.4c-1.9-0.6-4.8-4.9-4.5-6.8c0.1-0.8,1-1.8,1.8-2.2
	c2.2-1.1,5.4-1.2,6.6-2.9c1.1-1.5-0.1-4.6-0.2-6.9c-0.3-6.1,0.3-11.9,3.5-17.3c1.5-2.4,3.3-3.3,6-2.8c4.6,0.9,9.2,1.9,13.8,2.9
	c3.1,0.7,6.1,1.6,9.1,2.2C52.7,27.8,57,28.3,61.8,29.1z M61.7,34.7c-8-1.6-15.2-3.1-22.3-4.6c-4.4-0.9-8.8-2.1-13.2-2.8
	c-0.9-0.2-2.5,0.7-3,1.5c-3,5.9-2.7,12-1.4,18.3c0.5,0,0.8,0.1,1,0c1-0.4,2.1-0.7,3.1-1.1c7.3-2.9,14.6-5.5,22.4-1.8
	c0.8,0.4,1.9,1.3,2,2.1c0.4,2.5,0.3,5.1,0.4,7.7C57,49,57.7,41,61.7,34.7z M58.2,53.8c2.3,0,4.1-0.1,5.8,0c1.7,0.1,3.6,0,5.2,0.5
	c4.5,1.2,8-3.3,7.8-7.7c-0.2-5-2.4-8.4-6.4-11c-2.1-1.4-4-0.8-4.8,1.6c-0.6,1.6-1.3,3.2-2,4.8C62,45.7,60.2,49.5,58.2,53.8z
	 M45.5,47.8c-8.4-1.7-15.4,1.6-23.2,5.7c1.7,1.7,3,4,4.3,4.1c4.5,0.1,9.2-0.2,13.6-1C44.7,55.8,46.2,52.8,45.5,47.8z M31.3,68.3
	c2.4-1.9,4.5-3.5,7-5.5c-3.6,0.2-6.5,0.3-9.9,0.5C29.4,65.1,30.2,66.5,31.3,68.3z"/>
</svg>
