<svg id="d46705da-fe50-4a91-85de-417e27815e60" data-name="Layer 1" xmlns="http://www.w3.org/2000/svg" viewBox="0 0 55.33 101.67"><defs><style>.\37 276e174-f01c-4d19-8750-4f9290de0e96{fill:#171717;}</style></defs><title>dancer1</title><path class="7276e174-f01c-4d19-8750-4f9290de0e96" d="M28.37,23.1a3.86,3.86,0,0,1-4-.48c-1.24-1-1.09-1.07-.25-2.62.24-1.6.77-1.91,1.6-.91A3.66,3.66,0,0,1,27,20.27a.47.47,0,0,0,.67,0c.41-.51,6,2.57,6.32,2.71a23.27,23.27,0,0,1,7.19,5.53c3.46,4.1,7,13.25,1,16.89a.65.65,0,0,0,.66,1.12c4.71-2.73,4.34-9.23,2.51-13.62a20,20,0,0,0-5.91-7.75c-2.46-2-5.21-3-8-4.49-.37-.19-1.9-1.71-2.76-1.85-1.38-.22-.85.66-2.15-.36s-3.06-1.37-4,.11c-2.33,3.5,3.18,6.44,6,4.91.2-.1.06-.46-.16-.37Z"/><path class="7276e174-f01c-4d19-8750-4f9290de0e96" d="M28.16,29.39a5.21,5.21,0,0,0,6.58-.52c2.2-2,2.6-5.31,2.06-8.11a26,26,0,0,0-1.95-5.53C34,13.24,33.26,10.8,32,9c-1.78-2.44-4.4-1.21-6.25.43A52.6,52.6,0,0,1,20.15,14c-.66.44-2.46,2-2.58.23-.07-.85,2-2.5,2.55-3a45.67,45.67,0,0,1,5.73-4.44C27.49,5.64,30,3.6,32,3.26c5.64-1,4.72,8.41,5.39,11.89a9,9,0,0,0,5.44,7.06,5.58,5.58,0,0,1,1.36.68c.71.76.78,3.7.18,4.5s-1.68,1.51-2.4,2.33a5.91,5.91,0,0,0-1.72,4.11,7.53,7.53,0,0,0,.16,1l.26,1.36c-2.69,1.37-4.07,1.21-4.12-.5A17.79,17.79,0,0,0,36,33.05c-.69-1.42-2-1.89-3.45-2.26a.71.71,0,0,0-.38,1.37c1.94.48,2.68,1.8,3,3.58a5.89,5.89,0,0,0,.51,1.89,3.48,3.48,0,0,0,3.07,1.89,3.36,3.36,0,0,0,2.89-1.8,3.43,3.43,0,0,0,.36-2c-.14-1.94-.57-3.14.76-4.86,1.72-2.24,6-4.68,3.45-7.92-1.23-1.53-3.22-1.8-4.76-2.88C39,18.4,38.46,15.21,38.21,12.5,37.9,9.2,38,4.47,35,2.29a2.94,2.94,0,0,0-2.83-.4,28.87,28.87,0,0,0-6.9,3.8c-3,2-7.92,4.94-9,8.6-.2.68-.36,1.72.27,2.27,1,.85,2.33-.34,3.14-.84a43.57,43.57,0,0,0,6.38-5c1.72-1.58,3.51-3.18,5.5-.19a28.72,28.72,0,0,1,1.8,3.9c1.34,2.94,3,6.08,2.71,9.41-.28,3.75-3.84,7.28-7.61,5.05-.29-.17-.52.26-.26.45Z"/><path class="7276e174-f01c-4d19-8750-4f9290de0e96" d="M29,24.7c-5.61.26-11.08.93-14.75,5.63a93.23,93.23,0,0,1-7.46,8.78c-1.69,1.69-4,3.89-3.72,6.52a2,2,0,0,0,3,1.65,4.08,4.08,0,0,0,1.7-1.81A14.61,14.61,0,0,1,12,41.13c5-3.67,8.63-9.69,14.93-11.29l-.75-.43A14.88,14.88,0,0,0,31.75,37c1.86,1.33,3.64,2.32,4.84,4.34a23.06,23.06,0,0,1,2.24,6.48,43.34,43.34,0,0,1,1.07,7.43,8.45,8.45,0,0,1,0,2.75c-.89,2.38-3.09-.06-3.43-1.4a5.58,5.58,0,0,1,.43-4c.85-1.55,3.16-3.18,4.37-.23.63,1.56.22,3.34.93,5a.68.68,0,0,0,1,.13C45,55.77,46.81,54,48.67,52.47l1.07-.84q3.36.13,2.86,2.87a33.14,33.14,0,0,1-.73,4.29c-.75,4.05-1.39,8.13-2.41,12.11a33,33,0,0,1-5.37,11.75c-2.11,2.85-4.58,5.42-6.46,8.43a19.88,19.88,0,0,0-2,4.14c-.16.47-.29,1-.41,1.43-1.46,1.22-2.54,1-3.22-.5a5.81,5.81,0,0,1-.51-3.05c.15-2.24,1.32-4.47,2.16-6.51.91-2.21,1.85-4.42,2.89-6.58,1.73-3.58,4.06-6.62,6.14-10s1-5.94-1-8.9c-.51-.76-1.75-.05-1.23.71,1.6,2.39,2.71,4.75,1,7.48-1.14,1.86-2.58,3.53-3.7,5.41a82.68,82.68,0,0,0-5.14,10.69c-1.31,3.15-3.34,6.8-2.32,10.31.56,1.93,2.56,4.12,4.8,3.25,1.08-.42,1.3-1.27,1.6-2.31a19.62,19.62,0,0,1,2.6-5.49c2.1-3.17,4.79-5.9,6.92-9.05,4.67-6.87,5.63-15.46,7.08-23.43.47-2.56,1.89-7.45-1.64-8.61a3.57,3.57,0,0,0-3.34.92c-2.12,1.62-4,3.65-6,5.45l1.06.14c-.94-2.12,0-5.61-2.44-7-1.75-.94-3.8.2-4.85,1.65a6.92,6.92,0,0,0-.66,6.44c.58,1.5,2.21,3.79,4.12,3.07,2.09-.78,1.85-3.87,1.75-5.59a43.87,43.87,0,0,0-2-10.84A12.85,12.85,0,0,0,35,37.56c-3.36-2.52-6.19-4.24-7.61-8.47a.63.63,0,0,0-.76-.43c-4.16,1.05-7.19,3.92-10.16,6.86a55,55,0,0,1-6,5.21,15,15,0,0,0-2.16,1.81,7.8,7.8,0,0,0-.8,1c-.71,1-.43,1.23-1.93,1.56-1.24.65-1.57.42-1-.68A2.62,2.62,0,0,1,5,43.17a9.13,9.13,0,0,1,1.55-2.06c.91-1,1.93-2,2.89-2.94A40.18,40.18,0,0,0,14,32.58c1.84-2.72,3.8-4.82,7-5.94A33,33,0,0,1,29,25.19c.31,0,.32-.51,0-.49Z"/><path class="7276e174-f01c-4d19-8750-4f9290de0e96" d="M35.92,62.33c-4.48.18-8,3.13-12.23,4.33a12.11,12.11,0,0,1-8.53-.32c-1.61-.71-3-1.57-4.83-1.49s-4.19,1.68-6.14,1C.5,64.62,5.54,64.32,6.3,64.26c1.21-.08,2.41-.09,3.62-.25a19.86,19.86,0,0,0,9.41-4.08c3.18-2.45,5.23-5.57,7.61-8.71,3.12-4.11,7.92-5.65,12.66-3.16s7.58,9.36,3.17,13.47a6.7,6.7,0,0,1-8.21.38,7.4,7.4,0,0,1-3-7.46c.12-.82-1.09-1.21-1.29-.35C28.57,61.66,38.17,68.38,44,62.26c6-6.32-.5-15.71-7.85-16.68a10.32,10.32,0,0,0-9.34,3.65C23.53,53,21.31,57.18,17,60a17.89,17.89,0,0,1-6.47,2.61c-2.52.45-5.77-.22-8.14.89-2.64,1.22.36,3.61,2.08,3.82,2.53.31,4.76-1.52,7.3-1s4.42,2.1,7.1,2.19a18,18,0,0,0,7.58-1.72c3.14-1.35,6-3.58,9.51-3.91.33,0,.34-.54,0-.52Z"/></svg>