<svg id="Layer_1" data-name="Layer 1" xmlns="http://www.w3.org/2000/svg" viewBox="0 0 1883.7 711.57"><defs><style>.cls-1{opacity:0.1;}.cls-2{fill:#fff;}.cls-27,.cls-3,.cls-32,.cls-33{fill:none;}.cls-3{stroke:#90b2de;stroke-linecap:square;}.cls-4{fill:#1a57a8;}.cls-19,.cls-5{fill:#ed3b26;}.cls-6{fill:#f5b03b;}.cls-7{fill:#f48fae;}.cls-8{font-size:8.26px;font-family:MyriadPro-Regular, Myriad Pro;}.cls-35,.cls-8{fill:#010101;}.cls-9{letter-spacing:-0.03em;}.cls-10{letter-spacing:0.02em;}.cls-11{letter-spacing:-0.01em;}.cls-12{letter-spacing:-0.01em;}.cls-13{letter-spacing:-0.01em;}.cls-14{letter-spacing:0em;}.cls-15{letter-spacing:0.01em;}.cls-16{letter-spacing:-0.01em;}.cls-17{letter-spacing:0em;}.cls-18{letter-spacing:-0.01em;}.cls-19{stroke:#ed3b26;stroke-width:2.23px;}.cls-19,.cls-27,.cls-32,.cls-33{stroke-miterlimit:10;}.cls-20{letter-spacing:0.02em;}.cls-21{letter-spacing:0em;}.cls-22{letter-spacing:0em;}.cls-23{letter-spacing:-0.01em;}.cls-24{letter-spacing:0.01em;}.cls-25{fill:#5db18d;}.cls-26{fill:#2d2e2d;}.cls-27{stroke:#171717;}.cls-28{fill:#f3cc32;}.cls-29{fill:#ec6a42;}.cls-30{fill:#171717;}.cls-31{fill:#c9c262;}.cls-32,.cls-33{stroke:#000;}.cls-32{stroke-width:1.15px;}.cls-33{stroke-width:1.44px;}.cls-34{fill:#f1ae51;}</style></defs><title>line1</title><g class="cls-1"><g id="Desktop"><g id="Icons_Desktop_1312px" data-name="Icons Desktop 1312px"><g id="Align-element-do"><g id="Group-74"><rect id="Background" class="cls-2" x="155.42" width="135.89" height="135.89"/><g id="Grid-02"><g id="Group-4"><path id="Line" class="cls-3" d="M227.69,140.77v86.82" transform="translate(-47.5 -116)"/><path id="Line-2" data-name="Line" class="cls-3" d="M238.54,140.77v86.82" transform="translate(-47.5 -116)"/><path id="Line-3" data-name="Line" class="cls-3" d="M249.39,140.77v86.82" transform="translate(-47.5 -116)"/><path id="Line-4" data-name="Line" class="cls-3" d="M260.25,140.77v86.82" transform="translate(-47.5 -116)"/><path id="Line-5" data-name="Line" class="cls-3" d="M271.1,140.77v86.82" transform="translate(-47.5 -116)"/><path id="Line-6" data-name="Line" class="cls-3" d="M282,140.77v86.82" transform="translate(-47.5 -116)"/><path id="Line-7" data-name="Line" class="cls-3" d="M292.8,140.77v86.82" transform="translate(-47.5 -116)"/><path id="Line-8" data-name="Line" class="cls-3" d="M303.66,140.77v86.82" transform="translate(-47.5 -116)"/><path id="Line-9" data-name="Line" class="cls-3" d="M314.51,140.77v86.82" transform="translate(-47.5 -116)"/></g><g id="Group-4-2" data-name="Group-4"><path id="Line-10" data-name="Line" class="cls-3" d="M314.51,140.77H227.69" transform="translate(-47.5 -116)"/><path id="Line-11" data-name="Line" class="cls-3" d="M314.51,151.62H227.69" transform="translate(-47.5 -116)"/><path id="Line-12" data-name="Line" class="cls-3" d="M314.51,162.48H227.69" transform="translate(-47.5 -116)"/><path id="Line-13" data-name="Line" class="cls-3" d="M314.51,173.33H227.69" transform="translate(-47.5 -116)"/><path id="Line-14" data-name="Line" class="cls-3" d="M314.51,184.18H227.69" transform="translate(-47.5 -116)"/><path id="Line-15" data-name="Line" class="cls-3" d="M314.51,195H227.69" transform="translate(-47.5 -116)"/><path id="Line-16" data-name="Line" class="cls-3" d="M314.51,205.89H227.69" transform="translate(-47.5 -116)"/><path id="Line-17" data-name="Line" class="cls-3" d="M314.51,216.74H227.69" transform="translate(-47.5 -116)"/><path id="Line-18" data-name="Line" class="cls-3" d="M314.51,227.59H227.69" transform="translate(-47.5 -116)"/></g></g></g></g></g></g><g id="Desktop-2" data-name="Desktop"><g id="Icons_Desktop_1312px-2" data-name="Icons Desktop 1312px"><g id="Align-element-do-2" data-name="Align-element-do"><g id="Group-74-2" data-name="Group-74"><rect id="Background-2" data-name="Background" class="cls-2" x="571.1" width="135.89" height="135.89"/><g id="Grid-02-2" data-name="Grid-02"><g id="Group-4-3" data-name="Group-4"><path id="Line-19" data-name="Line" class="cls-3" d="M643.37,140.77v86.82" transform="translate(-47.5 -116)"/><path id="Line-20" data-name="Line" class="cls-3" d="M654.22,140.77v86.82" transform="translate(-47.5 -116)"/><path id="Line-21" data-name="Line" class="cls-3" d="M665.07,140.77v86.82" transform="translate(-47.5 -116)"/><path id="Line-22" data-name="Line" class="cls-3" d="M675.93,140.77v86.82" transform="translate(-47.5 -116)"/><path id="Line-23" data-name="Line" class="cls-3" d="M686.78,140.77v86.82" transform="translate(-47.5 -116)"/><path id="Line-24" data-name="Line" class="cls-3" d="M697.63,140.77v86.82" transform="translate(-47.5 -116)"/><path id="Line-25" data-name="Line" class="cls-3" d="M708.48,140.77v86.82" transform="translate(-47.5 -116)"/><path id="Line-26" data-name="Line" class="cls-3" d="M719.33,140.77v86.82" transform="translate(-47.5 -116)"/><path id="Line-27" data-name="Line" class="cls-3" d="M730.19,140.77v86.82" transform="translate(-47.5 -116)"/></g><g id="Group-4-4" data-name="Group-4"><path id="Line-28" data-name="Line" class="cls-3" d="M730.19,140.77H643.37" transform="translate(-47.5 -116)"/><path id="Line-29" data-name="Line" class="cls-3" d="M730.19,151.62H643.37" transform="translate(-47.5 -116)"/><path id="Line-30" data-name="Line" class="cls-3" d="M730.19,162.48H643.37" transform="translate(-47.5 -116)"/><path id="Line-31" data-name="Line" class="cls-3" d="M730.19,173.33H643.37" transform="translate(-47.5 -116)"/><path id="Line-32" data-name="Line" class="cls-3" d="M730.19,184.18H643.37" transform="translate(-47.5 -116)"/><path id="Line-33" data-name="Line" class="cls-3" d="M730.19,195H643.37" transform="translate(-47.5 -116)"/><path id="Line-34" data-name="Line" class="cls-3" d="M730.19,205.89H643.37" transform="translate(-47.5 -116)"/><path id="Line-35" data-name="Line" class="cls-3" d="M730.19,216.74H643.37" transform="translate(-47.5 -116)"/><path id="Line-36" data-name="Line" class="cls-3" d="M730.19,227.59H643.37" transform="translate(-47.5 -116)"/></g></g></g></g></g></g><g id="Desktop-3" data-name="Desktop"><g id="Icons_Desktop_1312px-3" data-name="Icons Desktop 1312px"><g id="Align-element-do-3" data-name="Align-element-do"><g id="Group-74-3" data-name="Group-74"><rect id="Background-3" data-name="Background" class="cls-2" x="363.26" width="135.89" height="135.89"/><g id="Grid-02-3" data-name="Grid-02"><g id="Group-4-5" data-name="Group-4"><path id="Line-37" data-name="Line" class="cls-3" d="M435.53,140.77v86.82" transform="translate(-47.5 -116)"/><path id="Line-38" data-name="Line" class="cls-3" d="M446.38,140.77v86.82" transform="translate(-47.5 -116)"/><path id="Line-39" data-name="Line" class="cls-3" d="M457.23,140.77v86.82" transform="translate(-47.5 -116)"/><path id="Line-40" data-name="Line" class="cls-3" d="M468.09,140.77v86.82" transform="translate(-47.5 -116)"/><path id="Line-41" data-name="Line" class="cls-3" d="M478.94,140.77v86.82" transform="translate(-47.5 -116)"/><path id="Line-42" data-name="Line" class="cls-3" d="M489.79,140.77v86.82" transform="translate(-47.5 -116)"/><path id="Line-43" data-name="Line" class="cls-3" d="M500.64,140.77v86.82" transform="translate(-47.5 -116)"/><path id="Line-44" data-name="Line" class="cls-3" d="M511.5,140.77v86.82" transform="translate(-47.5 -116)"/><path id="Line-45" data-name="Line" class="cls-3" d="M522.35,140.77v86.82" transform="translate(-47.5 -116)"/></g><g id="Group-4-6" data-name="Group-4"><path id="Line-46" data-name="Line" class="cls-3" d="M522.35,140.77H435.53" transform="translate(-47.5 -116)"/><path id="Line-47" data-name="Line" class="cls-3" d="M522.35,151.62H435.53" transform="translate(-47.5 -116)"/><path id="Line-48" data-name="Line" class="cls-3" d="M522.35,162.48H435.53" transform="translate(-47.5 -116)"/><path id="Line-49" data-name="Line" class="cls-3" d="M522.35,173.33H435.53" transform="translate(-47.5 -116)"/><path id="Line-50" data-name="Line" class="cls-3" d="M522.35,184.18H435.53" transform="translate(-47.5 -116)"/><path id="Line-51" data-name="Line" class="cls-3" d="M522.35,195H435.53" transform="translate(-47.5 -116)"/><path id="Line-52" data-name="Line" class="cls-3" d="M522.35,205.89H435.53" transform="translate(-47.5 -116)"/><path id="Line-53" data-name="Line" class="cls-3" d="M522.35,216.74H435.53" transform="translate(-47.5 -116)"/><path id="Line-54" data-name="Line" class="cls-3" d="M522.35,227.59H435.53" transform="translate(-47.5 -116)"/></g></g></g></g></g></g><g id="Desktop-4" data-name="Desktop"><g id="Icons_Desktop_1312px-4" data-name="Icons Desktop 1312px"><g id="Align-element-do-4" data-name="Align-element-do"><g id="Group-74-4" data-name="Group-74"><rect id="Background-4" data-name="Background" class="cls-2" x="154.5" y="167.09" width="135.89" height="135.89"/><g id="Grid-02-4" data-name="Grid-02"><g id="Group-4-7" data-name="Group-4"><path id="Line-55" data-name="Line" class="cls-3" d="M226.77,307.86v86.82" transform="translate(-47.5 -116)"/><path id="Line-56" data-name="Line" class="cls-3" d="M237.62,307.86v86.82" transform="translate(-47.5 -116)"/><path id="Line-57" data-name="Line" class="cls-3" d="M248.48,307.86v86.82" transform="translate(-47.5 -116)"/><path id="Line-58" data-name="Line" class="cls-3" d="M259.33,307.86v86.82" transform="translate(-47.5 -116)"/><path id="Line-59" data-name="Line" class="cls-3" d="M270.18,307.86v86.82" transform="translate(-47.5 -116)"/><path id="Line-60" data-name="Line" class="cls-3" d="M281,307.86v86.82" transform="translate(-47.5 -116)"/><path id="Line-61" data-name="Line" class="cls-3" d="M291.89,307.86v86.82" transform="translate(-47.5 -116)"/><path id="Line-62" data-name="Line" class="cls-3" d="M302.74,307.86v86.82" transform="translate(-47.5 -116)"/><path id="Line-63" data-name="Line" class="cls-3" d="M313.59,307.86v86.82" transform="translate(-47.5 -116)"/></g><g id="Group-4-8" data-name="Group-4"><path id="Line-64" data-name="Line" class="cls-3" d="M313.59,307.86H226.77" transform="translate(-47.5 -116)"/><path id="Line-65" data-name="Line" class="cls-3" d="M313.59,318.72H226.77" transform="translate(-47.5 -116)"/><path id="Line-66" data-name="Line" class="cls-3" d="M313.59,329.57H226.77" transform="translate(-47.5 -116)"/><path id="Line-67" data-name="Line" class="cls-3" d="M313.59,340.42H226.77" transform="translate(-47.5 -116)"/><path id="Line-68" data-name="Line" class="cls-3" d="M313.59,351.27H226.77" transform="translate(-47.5 -116)"/><path id="Line-69" data-name="Line" class="cls-3" d="M313.59,362.12H226.77" transform="translate(-47.5 -116)"/><path id="Line-70" data-name="Line" class="cls-3" d="M313.59,373H226.77" transform="translate(-47.5 -116)"/><path id="Line-71" data-name="Line" class="cls-3" d="M313.59,383.83H226.77" transform="translate(-47.5 -116)"/><path id="Line-72" data-name="Line" class="cls-3" d="M313.59,394.68H226.77" transform="translate(-47.5 -116)"/></g></g></g></g></g></g><g id="Desktop-5" data-name="Desktop"><g id="Icons_Desktop_1312px-5" data-name="Icons Desktop 1312px"><g id="Align-element-do-5" data-name="Align-element-do"><g id="Group-74-5" data-name="Group-74"><rect id="Background-5" data-name="Background" class="cls-2" x="570.18" y="167.09" width="135.89" height="135.89"/><g id="Grid-02-5" data-name="Grid-02"><g id="Group-4-9" data-name="Group-4"><path id="Line-73" data-name="Line" class="cls-3" d="M642.45,307.86v86.82" transform="translate(-47.5 -116)"/><path id="Line-74" data-name="Line" class="cls-3" d="M653.3,307.86v86.82" transform="translate(-47.5 -116)"/><path id="Line-75" data-name="Line" class="cls-3" d="M664.15,307.86v86.82" transform="translate(-47.5 -116)"/><path id="Line-76" data-name="Line" class="cls-3" d="M675,307.86v86.82" transform="translate(-47.5 -116)"/><path id="Line-77" data-name="Line" class="cls-3" d="M685.86,307.86v86.82" transform="translate(-47.5 -116)"/><path id="Line-78" data-name="Line" class="cls-3" d="M696.71,307.86v86.82" transform="translate(-47.5 -116)"/><path id="Line-79" data-name="Line" class="cls-3" d="M707.56,307.86v86.82" transform="translate(-47.5 -116)"/><path id="Line-80" data-name="Line" class="cls-3" d="M718.42,307.86v86.82" transform="translate(-47.5 -116)"/><path id="Line-81" data-name="Line" class="cls-3" d="M729.27,307.86v86.82" transform="translate(-47.5 -116)"/></g><g id="Group-4-10" data-name="Group-4"><path id="Line-82" data-name="Line" class="cls-3" d="M729.27,307.86H642.45" transform="translate(-47.5 -116)"/><path id="Line-83" data-name="Line" class="cls-3" d="M729.27,318.72H642.45" transform="translate(-47.5 -116)"/><path id="Line-84" data-name="Line" class="cls-3" d="M729.27,329.57H642.45" transform="translate(-47.5 -116)"/><path id="Line-85" data-name="Line" class="cls-3" d="M729.27,340.42H642.45" transform="translate(-47.5 -116)"/><path id="Line-86" data-name="Line" class="cls-3" d="M729.27,351.27H642.45" transform="translate(-47.5 -116)"/><path id="Line-87" data-name="Line" class="cls-3" d="M729.27,362.12H642.45" transform="translate(-47.5 -116)"/><path id="Line-88" data-name="Line" class="cls-3" d="M729.27,373H642.45" transform="translate(-47.5 -116)"/><path id="Line-89" data-name="Line" class="cls-3" d="M729.27,383.83H642.45" transform="translate(-47.5 -116)"/><path id="Line-90" data-name="Line" class="cls-3" d="M729.27,394.68H642.45" transform="translate(-47.5 -116)"/></g></g></g></g></g></g><g id="Desktop-6" data-name="Desktop"><g id="Icons_Desktop_1312px-6" data-name="Icons Desktop 1312px"><g id="Align-element-do-6" data-name="Align-element-do"><g id="Group-74-6" data-name="Group-74"><rect id="Background-6" data-name="Background" class="cls-2" x="362.34" y="167.09" width="135.89" height="135.89"/><g id="Grid-02-6" data-name="Grid-02"><g id="Group-4-11" data-name="Group-4"><path id="Line-91" data-name="Line" class="cls-3" d="M434.61,307.86v86.82" transform="translate(-47.5 -116)"/><path id="Line-92" data-name="Line" class="cls-3" d="M445.46,307.86v86.82" transform="translate(-47.5 -116)"/><path id="Line-93" data-name="Line" class="cls-3" d="M456.32,307.86v86.82" transform="translate(-47.5 -116)"/><path id="Line-94" data-name="Line" class="cls-3" d="M467.17,307.86v86.82" transform="translate(-47.5 -116)"/><path id="Line-95" data-name="Line" class="cls-3" d="M478,307.86v86.82" transform="translate(-47.5 -116)"/><path id="Line-96" data-name="Line" class="cls-3" d="M488.87,307.86v86.82" transform="translate(-47.5 -116)"/><path id="Line-97" data-name="Line" class="cls-3" d="M499.73,307.86v86.82" transform="translate(-47.5 -116)"/><path id="Line-98" data-name="Line" class="cls-3" d="M510.58,307.86v86.82" transform="translate(-47.5 -116)"/><path id="Line-99" data-name="Line" class="cls-3" d="M521.43,307.86v86.82" transform="translate(-47.5 -116)"/></g><g id="Group-4-12" data-name="Group-4"><path id="Line-100" data-name="Line" class="cls-3" d="M521.43,307.86H434.61" transform="translate(-47.5 -116)"/><path id="Line-101" data-name="Line" class="cls-3" d="M521.43,318.72H434.61" transform="translate(-47.5 -116)"/><path id="Line-102" data-name="Line" class="cls-3" d="M521.43,329.57H434.61" transform="translate(-47.5 -116)"/><path id="Line-103" data-name="Line" class="cls-3" d="M521.43,340.42H434.61" transform="translate(-47.5 -116)"/><path id="Line-104" data-name="Line" class="cls-3" d="M521.43,351.27H434.61" transform="translate(-47.5 -116)"/><path id="Line-105" data-name="Line" class="cls-3" d="M521.43,362.12H434.61" transform="translate(-47.5 -116)"/><path id="Line-106" data-name="Line" class="cls-3" d="M521.43,373H434.61" transform="translate(-47.5 -116)"/><path id="Line-107" data-name="Line" class="cls-3" d="M521.43,383.83H434.61" transform="translate(-47.5 -116)"/><path id="Line-108" data-name="Line" class="cls-3" d="M521.43,394.68H434.61" transform="translate(-47.5 -116)"/></g></g></g></g></g></g></g><path class="cls-4" d="M277.23,384.61c-.3-.83-.56-1.6-.85-2.35-.16-.41-.4-.79-.57-1.2-.54-1.3-1.1-2.6-1.57-3.93-.66-1.85-1.25-3.72-1.85-5.59-.18-.56-.27-1.14-.48-1.68-.13-.37.09-.59.86-.85,2.17-.73,4.35-1.49,6.52-2.23,2.61-.89,5.21-1.77,7.81-2.68.78-.26,1.12-.23,1.25.16a83.46,83.46,0,0,0,5.85,12.68c.45.84.44.87-1.29,1.57-2.79,1.12-5.6,2.21-8.4,3.3Z" transform="translate(-47.5 -116)"/><path class="cls-5" d="M298,198.79c-5.35-1.42-10.44-2.55-15.38-4.14-4.49-1.44-7.07-4.65-7.66-9.52-.14-1.11-1.65-2.93-2.45-2.89-1.66.08-4.21.78-4.73,2-2.51,5.69-7.06,8.23-12.71,9.41-2.82.59-5.68,1-8.54,1.37-3.92.43-2.25,3.41-2.58,5.43-.37,2.3,1,2.86,3,3q7.28.31,14.52.93c2.67.22,3.44,1.5,1.8,3.92-3.71,5.5-8.52,9.34-15.37,9.65-3.5.16-4.59,1.74-4.17,4.94.16,1.25.2,2.51.37,4.63h16.31a7.87,7.87,0,0,1,1,0c9-3.3,20-2.3,29-1a2.38,2.38,0,0,1,1.72,1c1.78.28,4,1.12,4.28-2.24s-.37-5.48-4.45-6.2a66.35,66.35,0,0,1-13.79-4.36c-4-1.68-6.25-5.25-8.07-9.71,2.16,0,3.82-.08,5.48,0,5.88.34,11.8.52,17.65,1.21,3.59.42,4.79-.88,4.63-4.21A31.23,31.23,0,0,1,298,198.79Z" transform="translate(-47.5 -116)"/><path class="cls-5" d="M718.83,366.69a13.49,13.49,0,0,1,6.29,7.64,9.31,9.31,0,0,1-4.65,11.95c-7.87,4.15-16.28-3.44-16.26-11.19,0-3.18,1.69-5.09,4.13-6.48,1-.56,2-1,3.58-1.72-3.95-1.6-7-3.53-7.5-8.09-.5-5,3.17-6.61,6.24-8.74a38.67,38.67,0,0,1-4.48-3.46,8.67,8.67,0,0,1,2.72-13.74c4.88-2.16,9.34-2.37,13.48,1.74,2.44,2.41,4.16,5.06,3.47,8.67-.64,3.34-2.93,5.17-5.93,6.11a5.38,5.38,0,0,0-.82.36,3.73,3.73,0,0,0-.36.63c5.56.62,7.48,4,6.9,9.56C725.2,364.17,722.16,365.2,718.83,366.69Z" transform="translate(-47.5 -116)"/><path class="cls-5" d="M459.1,363.25a9.2,9.2,0,0,1,10.51,2.59,8.56,8.56,0,0,1,.38,10.72c-1.48,2-2.47,2.05-4.85,1-1.14-.51-2.68-.08-4-.22a3.06,3.06,0,0,1-1.56-.79,47.19,47.19,0,0,0-4.06-3.71c-1.79-1.22-2.26-2.61-1.44-4.53A8.9,8.9,0,0,1,459.1,363.25Z" transform="translate(-47.5 -116)"/><path class="cls-4" d="M498.53,336.88,451.2,339c-2.16-15.72,9.35-29.29,24.2-29a18.87,18.87,0,0,1,9,3C492.84,318.21,495.09,327.19,498.53,336.88Z" transform="translate(-47.5 -116)"/><path class="cls-6" d="M451.18,348.1l45.75-7c1.78,12.43,5,23.9,4.37,36.57C483.52,369.44,465.63,362.47,451.18,348.1Z" transform="translate(-47.5 -116)"/><path class="cls-7" d="M478.54,397.82c-4.35-.62-8.76-1-13.05-1.93-3.7-.78-5.2-3-5.37-6.57-.32-6.63,1-8.4,8.06-8.81a201.42,201.42,0,0,1,21.14-.15,11.72,11.72,0,0,1,11.55,11.33,2.28,2.28,0,0,1-1,1.46c-2.82-.88-4.13,1.46-5.55,2.69a9.49,9.49,0,0,1-6.67,2.17c-3,0-6.06-.31-9.1-.49Z" transform="translate(-47.5 -116)"/><text class="cls-8" transform="translate(208.58 317.72)"><tspan class="cls-9">P</tspan><tspan x="4.18" y="0">a</tspan><tspan class="cls-10" x="8.16" y="0">r</tspan><tspan x="11.06" y="0">tner</tspan></text><text class="cls-8" transform="translate(424.51 317.72)">Build</text><text class="cls-8" transform="translate(624.35 317.72)">O<tspan class="cls-11" x="5.69" y="0">r</tspan><tspan x="8.33" y="0">gani</tspan><tspan class="cls-12" x="23.45" y="0">z</tspan><tspan x="26.93" y="0">e</tspan></text><text class="cls-8" transform="translate(216.49 136.72)"><tspan class="cls-13">U</tspan><tspan x="5.3" y="0">ser</tspan></text><text class="cls-8" transform="translate(425.66 136.72)">G<tspan class="cls-14" x="5.34" y="0">r</tspan><tspan x="8" y="0">aph</tspan></text><text class="cls-8" transform="translate(627.67 130.72)"><tspan class="cls-15">I</tspan><tspan x="2.06" y="0">nn</tspan><tspan class="cls-16" x="11.23" y="0">o</tspan><tspan class="cls-17" x="15.71" y="0">va</tspan><tspan class="cls-18" x="23.6" y="0">t</tspan><tspan x="26.29" y="0">e</tspan></text><path class="cls-5" d="M689.38,365.16c-1.31,0-2.62,0-3.92.15a4.65,4.65,0,0,1-3.22-.86c-1-.67-2-1.24-2.86-2a16.88,16.88,0,0,1-4.08-5.17,8.6,8.6,0,0,0-1.08-2,.71.71,0,0,1-.12-.54c.19-.92.5-1.82.61-2.75.18-1.53,1.17-2.6,1.86-3.81a20.37,20.37,0,0,1,2.48-3.17,12,12,0,0,1,1.5-1.25,3.12,3.12,0,0,1,3.05-.46,16.86,16.86,0,0,1,4.36,1.47,9.72,9.72,0,0,0,2.55,1A6.6,6.6,0,0,1,694,348.6c.7.95,1.42,1.91,2,2.92a2.9,2.9,0,0,1,.26,2.43.75.75,0,0,0,.11.59,3.38,3.38,0,0,1,.89,2.65c0,2.45-1.27,4.32-2.49,6.22a.86.86,0,0,1-.4.36c-1.57.52-3.08,1.32-4.78,1.36h-.26Z" transform="translate(-47.5 -116)"/><path class="cls-7" d="M662.1,369.48c1.61.36,3.21.74,4.82,1,2.56.5,4.59,2.17,6.81,3.41a8.62,8.62,0,0,1,2.52,2.34,4.34,4.34,0,0,1,.72,3.64,8.21,8.21,0,0,1-2.05,3.64,15.07,15.07,0,0,1-5.17,4,2.32,2.32,0,0,1-1.36.11,32,32,0,0,1-4.59-.86,26.18,26.18,0,0,1-4.86-2,8.48,8.48,0,0,1-3.74-4.58,6.65,6.65,0,0,0-.94-1.86,3.66,3.66,0,0,1-.6-2.92c.27-1.76.67-3.52,2.35-4.3a27.23,27.23,0,0,1,4.48-1.34,9.2,9.2,0,0,1,1.58-.17Z" transform="translate(-47.5 -116)"/><path class="cls-7" d="M664.25,345.6c1.27-.06,2.54-.05,3.8-.2s1.93.77,2.47,1.73a16.84,16.84,0,0,1,1.72,7.1c.09,1,.19,2.09.18,3.13a4.39,4.39,0,0,1-.37,1.62,7,7,0,0,1-1.78,2.57c-1.78,1.61-3.94,2-6.13,2.24a14.5,14.5,0,0,1-2.85.24,6.17,6.17,0,0,1-2.4-.71,17.32,17.32,0,0,1-4.54-4,7.91,7.91,0,0,1-1.34-3.58,7.08,7.08,0,0,1,.44-4.53c.32-.79.39-1.68,1.13-2.2a19.8,19.8,0,0,1,2.47-1.62,12.57,12.57,0,0,1,2.68-1.06c1.48-.37,3-.6,4.5-.89Z" transform="translate(-47.5 -116)"/><path class="cls-7" d="M692.42,388c-2.14-.4-4.18-.52-6-1.66-1.21-.76-2.58-1.26-3.75-2.07a13.58,13.58,0,0,1-2.52-2.45,6.38,6.38,0,0,1-.89-1.9,3.29,3.29,0,0,1,.28-2.75c.64-1.2,1.18-2.45,1.9-3.6a6.06,6.06,0,0,1,4.22-2.77c1.49-.29,3-.52,4.48-.72a4.32,4.32,0,0,1,1.39,0,10.92,10.92,0,0,1,4.47,1.39c1,.71,1.83,1.76,2.81,2.55a5.29,5.29,0,0,1,1.86,2.93,4.15,4.15,0,0,1,.11,2.52c-.24.69-.18,1.49-.38,2.2a6.13,6.13,0,0,1-2,2.86c-.1.09-.24.14-.32.25a8.6,8.6,0,0,1-4.23,2.66Z" transform="translate(-47.5 -116)"/><path class="cls-7" d="M676.47,334.36c-1.28.37-2.55.77-3.84,1.08a9.23,9.23,0,0,1-4.81-.13c-.52-.15-.92-.76-1.36-1.17-.13-.12-.2-.33-.33-.43-2.11-1.54-2-3.94-2-6.16a5.63,5.63,0,0,1,1.51-3.75,12.77,12.77,0,0,1,2.89-2.75c.65-.38,1.27-.83,1.94-1.14a7.62,7.62,0,0,1,1.59-.44c1.19-.27,2.38-.54,3.57-.78,1.5-.31,2.58.61,3.58,1.52a10.72,10.72,0,0,1,3,5.31,5.69,5.69,0,0,1-.45,4.59,3.59,3.59,0,0,0-.13.52c-.13.4-.27.79-.4,1.19l-.05.05a2.36,2.36,0,0,1-1.73,2,7.22,7.22,0,0,1-1,.38c-.64.14-1.3.23-2,.35Z" transform="translate(-47.5 -116)"/><path class="cls-6" d="M277,179c-1.74.06-3.49,0-5.23.19a6.38,6.38,0,0,1-4.29-1.08c-1.27-.86-2.63-1.58-3.83-2.52a21.69,21.69,0,0,1-5.44-6.57,10.5,10.5,0,0,0-1.44-2.57.85.85,0,0,1-.15-.68c.25-1.17.65-2.32.8-3.5.25-1.94,1.56-3.31,2.49-4.85a26.22,26.22,0,0,1,3.31-4,16.2,16.2,0,0,1,2-1.6,4.36,4.36,0,0,1,4.08-.57c2,.53,4,.81,5.82,1.86a13.56,13.56,0,0,0,3.4,1.29A8.76,8.76,0,0,1,283.2,158c.94,1.22,1.89,2.43,2.71,3.72a3.57,3.57,0,0,1,.35,3.08.89.89,0,0,0,.14.75,4.16,4.16,0,0,1,1.19,3.36c-.07,3.11-1.69,5.49-3.33,7.9a1.17,1.17,0,0,1-.52.47c-2.11.66-4.12,1.67-6.38,1.73H277Z" transform="translate(-47.5 -116)"/><path class="cls-4" d="M451,148h14v15.3c3.34,0,6.22,0,9.1,0,1.72,0,2.37.66,2.32,2.44-.12,3.88,0,7.76,0,12.17,3.31,0,6.47,0,9.63,0,1.61,0,2.5.36,2.53,2.24.19,13.7.46,27.39.7,41.09a21.54,21.54,0,0,1-.25,2.18c-5.62,0-11.22.06-16.81-.07a3.85,3.85,0,0,1-2.26-1.53q-9-10.72-17.84-21.54a4.14,4.14,0,0,1-1-2.3q-.29-24.62-.44-49.23C450.64,148.62,450.73,148.54,451,148Z" transform="translate(-47.5 -116)"/><path class="cls-4" d="M264.48,355.28c-4.66-1.65-9.1-3.25-13.56-4.78-5.66-1.94-9.53-.67-13,4.19A7.73,7.73,0,0,0,239,365.31a25.89,25.89,0,0,0,6.4,3.92c3.44,1.5,7,2.63,10.58,3.88,1.59.57,2.17,1.45,1.5,3.16-1,2.51-1.71,5.12-2.73,7.61a2.3,2.3,0,0,1-1.88,1.15c-8.55-2.32-16.7-5.36-23.67-11.23-9.54-8.05-9.12-21.66.11-30.32,5.39-5.06,11.79-6,18.48-4.36,6.18,1.46,12.16,3.74,18.18,5.8.64.22,1.49,1.48,1.35,2C266.61,349.59,265.58,352.16,264.48,355.28Z" transform="translate(-47.5 -116)"/><path class="cls-6" d="M708.06,177.47c.25,3.72-1.25,6.95-2.88,10.12-5.14,10-13.66,16.61-23,22.19-5.55,3.32-11.57,2.36-17.56.73-5.19-1.42-8.09-4.5-9.48-9.71-1.27-4.79-3.18-9.43-3.25-14.46-.15-9.2,2.36-17.28,9.17-24a34.4,34.4,0,0,1,17.82-9.47c9.52-1.91,22.9,2.76,26.65,12.68,1.43,3.78,2.07,7.86,3.07,11.8Z" transform="translate(-47.5 -116)"/><path class="cls-4" d="M699.51,162.45c1.26-3.62,2.44-7,3.64-10.45,3.75.79,4.56,1.31,3.49,4.9-1.57,5.23,2.32,6.94,5.23,8.94a11,11,0,0,1,4.55,6.47,51.11,51.11,0,0,1,1.6,11.88c.08,4-5.52,8.71-9.52,8.56-3.58-.13-7.16-.43-10.75-.5a7.62,7.62,0,0,0-6.15,2.41c-4.49,4.86-9.11,9.59-13.77,14.45L683,212c-1.52,2-2.94,3-5.29,2.13-2.11-.81-4.1-2.35-6.68-.63-.59.39-2.44-1.11-3.89-1.83l1-1.82c-2.41-4-4.5-7.62-6.83-11.12a6.45,6.45,0,0,0-3.06-2.17c-2.69-.95-5.49-1.55-8.21-2.41-1.87-.59-4.81-4.86-4.5-6.76a3.56,3.56,0,0,1,1.8-2.23c2.21-1,5.45-1.2,6.6-2.87s-.08-4.57-.22-6.94c-.34-6.08.28-11.92,3.55-17.3,1.46-2.4,3.27-3.35,6-2.79,4.6.95,9.2,1.86,13.79,2.87,3.05.67,6.05,1.64,9.12,2.22C690.4,161.13,694.69,161.7,699.51,162.45Zm-.14,5.57c-8-1.65-15.15-3.11-22.34-4.63-4.41-.93-8.77-2-13.21-2.81a3.58,3.58,0,0,0-3,1.53c-3,5.86-2.71,12-1.44,18.28a3.85,3.85,0,0,0,1,0c1.05-.36,2.08-.74,3.11-1.15,7.28-2.86,14.59-5.53,22.38-1.83.83.4,1.86,1.3,2,2.08.36,2.5.32,5.07.44,7.66C694.72,182.32,695.39,174.39,699.37,168Zm-3.53,19.14c2.31,0,4-.06,5.79,0a23.76,23.76,0,0,1,5.22.47c4.48,1.21,8-3.27,7.81-7.74a12.93,12.93,0,0,0-6.35-11c-2.1-1.39-4-.82-4.83,1.55-.6,1.64-1.31,3.24-2,4.82C699.66,179.11,697.85,182.91,695.84,187.16Zm-12.7-6c-8.39-1.66-15.39,1.64-23.18,5.69,1.69,1.68,3,4,4.28,4.06a71,71,0,0,0,13.65-1C682.32,189.13,683.89,186.21,683.14,181.13Zm-14.22,20.52,7-5.47-9.89.5Z" transform="translate(-47.5 -116)"/><path class="cls-6" d="M286.49,351.6c-2.22-1.62-4.56-3.12-6.64-4.91a77.29,77.29,0,0,1-6.43-6.37c-2-2.19-1.8-5-1.44-7.65a22.22,22.22,0,0,1,1.61-5.44c.36-.87,1.29-1.5,1.94-2.25a24.39,24.39,0,0,1,2.06-2.35,31.24,31.24,0,0,1,4.24-3.29,54.76,54.76,0,0,1,6.39-3.36A23.4,23.4,0,0,1,303,314.86a4.58,4.58,0,0,1,2.26,1.26,61,61,0,0,1,5.43,6.28,19.65,19.65,0,0,1,3.69,12.09,30.66,30.66,0,0,1-1.53,8.13,34.72,34.72,0,0,1-3.77,8.79c-2.12,3.2-5,5.37-9.54,4.7C292.61,355.09,291.77,354.37,286.49,351.6Z" transform="translate(-47.5 -116)"/><path class="cls-7" d="M491.63,153.06c.89-.1,1.77-.21,2.66-.3a17.72,17.72,0,0,1,6.41,1c.72.2.88.92,1,1.55.31,1.7.55,3.41.86,5.11.08.45.35.87.41,1.32.24,1.95-.87,3.41-1.92,4.84a6.35,6.35,0,0,1-2.36,2.41,4.33,4.33,0,0,1-1.34.57c-1.7.11-3.42.17-5.13.14a6.46,6.46,0,0,1-3.16-1.2,19.27,19.27,0,0,1-2.91-1.92,52.45,52.45,0,0,1-4-4c-.28-.3-.26-.93-.29-1.41a8,8,0,0,1,1.84-5.82,5.6,5.6,0,0,1,2.67-1.38,42.78,42.78,0,0,1,4.37-.88,8.67,8.67,0,0,1,.89-.06Z" transform="translate(-47.5 -116)"/><path class="cls-5" d="M506.05,177.17l7.68,7-17.49,19.13c-3.77-.7-7.81,7.18-13,11.18a36.8,36.8,0,0,1-5.19-5.07c-.27-.36,1.36-3.16,2.57-4.53,3.16-3.56,6.65-6.89,9.87-10.43,3.49-3.83,6.81-7.8,10.25-11.68C502.35,181,504.05,179.29,506.05,177.17Z" transform="translate(-47.5 -116)"/><path class="cls-19" d="M304.36,310.81c1.42.16,1.71.79,1.55,1.95-.81,5.76-1.55,11.52-2.31,17.29l-2.76,20.82c-.1.73-.25,1.46-.37,2.19l-.59.09a6.31,6.31,0,0,1-.36-2c.62-4.2,1.47-8.37,2-12.59.7-6.12,1.11-12.28,1.71-18.42C303.5,317.11,304,314,304.36,310.81Z" transform="translate(-47.5 -116)"/><path class="cls-19" d="M289.76,323.69c-2.27,1.35-4.5,2.79-6.84,4-4.69,2.47-9.43,4.85-14.18,7.2-.47.24-1.15,0-1.73.07.34-.49.58-1.18,1.05-1.43q9.26-5,18.59-9.79a17.15,17.15,0,0,1,2.79-.9Z" transform="translate(-47.5 -116)"/><path class="cls-19" d="M273.85,350.42,288,333.28C288.4,335.38,276.14,350.09,273.85,350.42Z" transform="translate(-47.5 -116)"/><path class="cls-19" d="M291.58,309c.73,3.9,1.49,7.8,2.19,11.71.24,1.35.28,2.74.51,4.09.19,1.13-.23,1.63-1.41,1.74-.73-5.88-1.44-11.67-2.16-17.46Z" transform="translate(-47.5 -116)"/><path class="cls-19" d="M291.82,357.42c-.44-.56-1.12-1.06-1.28-1.69-.71-2.77-1.29-5.57-1.83-8.38-.08-.45.31-1,.48-1.5.34.36.89.67,1,1.09.83,3.31,1.57,6.65,2.34,10Z" transform="translate(-47.5 -116)"/><path class="cls-19" d="M316.12,325.17c-1.05,6.25-5.07,11.27-7.05,17.13C310.26,336.1,313.82,330.9,316.12,325.17Z" transform="translate(-47.5 -116)"/><path class="cls-19" d="M280.85,309.74c-.24,2.64-.45,5.29-.76,7.93,0,.31-.58.57-.89.85-.19-.31-.57-.64-.56-.94.1-2.09.19-4.18.47-6.25.08-.66.71-1.25,1.09-1.87Z" transform="translate(-47.5 -116)"/><g class="cls-1"><g id="Desktop-7" data-name="Desktop"><g id="Icons_Desktop_1312px-7" data-name="Icons Desktop 1312px"><g id="Align-element-do-7" data-name="Align-element-do"><g id="Group-74-7" data-name="Group-74"><rect id="Background-7" data-name="Background" class="cls-2" x="1332.13" y="12.32" width="135.89" height="135.89"/><g id="Grid-02-7" data-name="Grid-02"><g id="Group-4-13" data-name="Group-4"><path id="Line-109" data-name="Line" class="cls-3" d="M1404.4,153.09v86.82" transform="translate(-47.5 -116)"/><path id="Line-110" data-name="Line" class="cls-3" d="M1415.25,153.09v86.82" transform="translate(-47.5 -116)"/><path id="Line-111" data-name="Line" class="cls-3" d="M1426.1,153.09v86.82" transform="translate(-47.5 -116)"/><path id="Line-112" data-name="Line" class="cls-3" d="M1437,153.09v86.82" transform="translate(-47.5 -116)"/><path id="Line-113" data-name="Line" class="cls-3" d="M1447.81,153.09v86.82" transform="translate(-47.5 -116)"/><path id="Line-114" data-name="Line" class="cls-3" d="M1458.66,153.09v86.82" transform="translate(-47.5 -116)"/><path id="Line-115" data-name="Line" class="cls-3" d="M1469.51,153.09v86.82" transform="translate(-47.5 -116)"/><path id="Line-116" data-name="Line" class="cls-3" d="M1480.37,153.09v86.82" transform="translate(-47.5 -116)"/><path id="Line-117" data-name="Line" class="cls-3" d="M1491.22,153.09v86.82" transform="translate(-47.5 -116)"/></g><g id="Group-4-14" data-name="Group-4"><path id="Line-118" data-name="Line" class="cls-3" d="M1491.22,153.09H1404.4" transform="translate(-47.5 -116)"/><path id="Line-119" data-name="Line" class="cls-3" d="M1491.22,164H1404.4" transform="translate(-47.5 -116)"/><path id="Line-120" data-name="Line" class="cls-3" d="M1491.22,174.8H1404.4" transform="translate(-47.5 -116)"/><path id="Line-121" data-name="Line" class="cls-3" d="M1491.22,185.65H1404.4" transform="translate(-47.5 -116)"/><path id="Line-122" data-name="Line" class="cls-3" d="M1491.22,196.5H1404.4" transform="translate(-47.5 -116)"/><path id="Line-123" data-name="Line" class="cls-3" d="M1491.22,207.36H1404.4" transform="translate(-47.5 -116)"/><path id="Line-124" data-name="Line" class="cls-3" d="M1491.22,218.21H1404.4" transform="translate(-47.5 -116)"/><path id="Line-125" data-name="Line" class="cls-3" d="M1491.22,229.06H1404.4" transform="translate(-47.5 -116)"/><path id="Line-126" data-name="Line" class="cls-3" d="M1491.22,239.91H1404.4" transform="translate(-47.5 -116)"/></g></g></g></g></g></g><g id="Desktop-8" data-name="Desktop"><g id="Icons_Desktop_1312px-8" data-name="Icons Desktop 1312px"><g id="Align-element-do-8" data-name="Align-element-do"><g id="Group-74-8" data-name="Group-74"><rect id="Background-8" data-name="Background" class="cls-2" x="1747.81" y="12.32" width="135.89" height="135.89"/><g id="Grid-02-8" data-name="Grid-02"><g id="Group-4-15" data-name="Group-4"><path id="Line-127" data-name="Line" class="cls-3" d="M1820.08,153.09v86.82" transform="translate(-47.5 -116)"/><path id="Line-128" data-name="Line" class="cls-3" d="M1830.93,153.09v86.82" transform="translate(-47.5 -116)"/><path id="Line-129" data-name="Line" class="cls-3" d="M1841.78,153.09v86.82" transform="translate(-47.5 -116)"/><path id="Line-130" data-name="Line" class="cls-3" d="M1852.63,153.09v86.82" transform="translate(-47.5 -116)"/><path id="Line-131" data-name="Line" class="cls-3" d="M1863.49,153.09v86.82" transform="translate(-47.5 -116)"/><path id="Line-132" data-name="Line" class="cls-3" d="M1874.34,153.09v86.82" transform="translate(-47.5 -116)"/><path id="Line-133" data-name="Line" class="cls-3" d="M1885.19,153.09v86.82" transform="translate(-47.5 -116)"/><path id="Line-134" data-name="Line" class="cls-3" d="M1896,153.09v86.82" transform="translate(-47.5 -116)"/><path id="Line-135" data-name="Line" class="cls-3" d="M1906.9,153.09v86.82" transform="translate(-47.5 -116)"/></g><g id="Group-4-16" data-name="Group-4"><path id="Line-136" data-name="Line" class="cls-3" d="M1906.9,153.09h-86.82" transform="translate(-47.5 -116)"/><path id="Line-137" data-name="Line" class="cls-3" d="M1906.9,164h-86.82" transform="translate(-47.5 -116)"/><path id="Line-138" data-name="Line" class="cls-3" d="M1906.9,174.8h-86.82" transform="translate(-47.5 -116)"/><path id="Line-139" data-name="Line" class="cls-3" d="M1906.9,185.65h-86.82" transform="translate(-47.5 -116)"/><path id="Line-140" data-name="Line" class="cls-3" d="M1906.9,196.5h-86.82" transform="translate(-47.5 -116)"/><path id="Line-141" data-name="Line" class="cls-3" d="M1906.9,207.36h-86.82" transform="translate(-47.5 -116)"/><path id="Line-142" data-name="Line" class="cls-3" d="M1906.9,218.21h-86.82" transform="translate(-47.5 -116)"/><path id="Line-143" data-name="Line" class="cls-3" d="M1906.9,229.06h-86.82" transform="translate(-47.5 -116)"/><path id="Line-144" data-name="Line" class="cls-3" d="M1906.9,239.91h-86.82" transform="translate(-47.5 -116)"/></g></g></g></g></g></g><g id="Desktop-9" data-name="Desktop"><g id="Icons_Desktop_1312px-9" data-name="Icons Desktop 1312px"><g id="Align-element-do-9" data-name="Align-element-do"><g id="Group-74-9" data-name="Group-74"><rect id="Background-9" data-name="Background" class="cls-2" x="1539.97" y="12.32" width="135.89" height="135.89"/><g id="Grid-02-9" data-name="Grid-02"><g id="Group-4-17" data-name="Group-4"><path id="Line-145" data-name="Line" class="cls-3" d="M1612.24,153.09v86.82" transform="translate(-47.5 -116)"/><path id="Line-146" data-name="Line" class="cls-3" d="M1623.09,153.09v86.82" transform="translate(-47.5 -116)"/><path id="Line-147" data-name="Line" class="cls-3" d="M1633.94,153.09v86.82" transform="translate(-47.5 -116)"/><path id="Line-148" data-name="Line" class="cls-3" d="M1644.8,153.09v86.82" transform="translate(-47.5 -116)"/><path id="Line-149" data-name="Line" class="cls-3" d="M1655.65,153.09v86.82" transform="translate(-47.5 -116)"/><path id="Line-150" data-name="Line" class="cls-3" d="M1666.5,153.09v86.82" transform="translate(-47.5 -116)"/><path id="Line-151" data-name="Line" class="cls-3" d="M1677.35,153.09v86.82" transform="translate(-47.5 -116)"/><path id="Line-152" data-name="Line" class="cls-3" d="M1688.2,153.09v86.82" transform="translate(-47.5 -116)"/><path id="Line-153" data-name="Line" class="cls-3" d="M1699.06,153.09v86.82" transform="translate(-47.5 -116)"/></g><g id="Group-4-18" data-name="Group-4"><path id="Line-154" data-name="Line" class="cls-3" d="M1699.06,153.09h-86.82" transform="translate(-47.5 -116)"/><path id="Line-155" data-name="Line" class="cls-3" d="M1699.06,164h-86.82" transform="translate(-47.5 -116)"/><path id="Line-156" data-name="Line" class="cls-3" d="M1699.06,174.8h-86.82" transform="translate(-47.5 -116)"/><path id="Line-157" data-name="Line" class="cls-3" d="M1699.06,185.65h-86.82" transform="translate(-47.5 -116)"/><path id="Line-158" data-name="Line" class="cls-3" d="M1699.06,196.5h-86.82" transform="translate(-47.5 -116)"/><path id="Line-159" data-name="Line" class="cls-3" d="M1699.06,207.36h-86.82" transform="translate(-47.5 -116)"/><path id="Line-160" data-name="Line" class="cls-3" d="M1699.06,218.21h-86.82" transform="translate(-47.5 -116)"/><path id="Line-161" data-name="Line" class="cls-3" d="M1699.06,229.06h-86.82" transform="translate(-47.5 -116)"/><path id="Line-162" data-name="Line" class="cls-3" d="M1699.06,239.91h-86.82" transform="translate(-47.5 -116)"/></g></g></g></g></g></g><g id="Desktop-10" data-name="Desktop"><g id="Icons_Desktop_1312px-10" data-name="Icons Desktop 1312px"><g id="Align-element-do-10" data-name="Align-element-do"><g id="Group-74-10" data-name="Group-74"><rect id="Background-10" data-name="Background" class="cls-2" x="1331.21" y="179.41" width="135.89" height="135.89"/><g id="Grid-02-10" data-name="Grid-02"><g id="Group-4-19" data-name="Group-4"><path id="Line-163" data-name="Line" class="cls-3" d="M1403.48,320.19V407" transform="translate(-47.5 -116)"/><path id="Line-164" data-name="Line" class="cls-3" d="M1414.33,320.19V407" transform="translate(-47.5 -116)"/><path id="Line-165" data-name="Line" class="cls-3" d="M1425.19,320.19V407" transform="translate(-47.5 -116)"/><path id="Line-166" data-name="Line" class="cls-3" d="M1436,320.19V407" transform="translate(-47.5 -116)"/><path id="Line-167" data-name="Line" class="cls-3" d="M1446.89,320.19V407" transform="translate(-47.5 -116)"/><path id="Line-168" data-name="Line" class="cls-3" d="M1457.74,320.19V407" transform="translate(-47.5 -116)"/><path id="Line-169" data-name="Line" class="cls-3" d="M1468.6,320.19V407" transform="translate(-47.5 -116)"/><path id="Line-170" data-name="Line" class="cls-3" d="M1479.45,320.19V407" transform="translate(-47.5 -116)"/><path id="Line-171" data-name="Line" class="cls-3" d="M1490.3,320.19V407" transform="translate(-47.5 -116)"/></g><g id="Group-4-20" data-name="Group-4"><path id="Line-172" data-name="Line" class="cls-3" d="M1490.3,320.19h-86.82" transform="translate(-47.5 -116)"/><path id="Line-173" data-name="Line" class="cls-3" d="M1490.3,331h-86.82" transform="translate(-47.5 -116)"/><path id="Line-174" data-name="Line" class="cls-3" d="M1490.3,341.89h-86.82" transform="translate(-47.5 -116)"/><path id="Line-175" data-name="Line" class="cls-3" d="M1490.3,352.74h-86.82" transform="translate(-47.5 -116)"/><path id="Line-176" data-name="Line" class="cls-3" d="M1490.3,363.59h-86.82" transform="translate(-47.5 -116)"/><path id="Line-177" data-name="Line" class="cls-3" d="M1490.3,374.45h-86.82" transform="translate(-47.5 -116)"/><path id="Line-178" data-name="Line" class="cls-3" d="M1490.3,385.3h-86.82" transform="translate(-47.5 -116)"/><path id="Line-179" data-name="Line" class="cls-3" d="M1490.3,396.15h-86.82" transform="translate(-47.5 -116)"/><path id="Line-180" data-name="Line" class="cls-3" d="M1490.3,407h-86.82" transform="translate(-47.5 -116)"/></g></g></g></g></g></g><g id="Desktop-11" data-name="Desktop"><g id="Icons_Desktop_1312px-11" data-name="Icons Desktop 1312px"><g id="Align-element-do-11" data-name="Align-element-do"><g id="Group-74-11" data-name="Group-74"><rect id="Background-11" data-name="Background" class="cls-2" x="1746.89" y="179.41" width="135.89" height="135.89"/><g id="Grid-02-11" data-name="Grid-02"><g id="Group-4-21" data-name="Group-4"><path id="Line-181" data-name="Line" class="cls-3" d="M1819.16,320.19V407" transform="translate(-47.5 -116)"/><path id="Line-182" data-name="Line" class="cls-3" d="M1830,320.19V407" transform="translate(-47.5 -116)"/><path id="Line-183" data-name="Line" class="cls-3" d="M1840.86,320.19V407" transform="translate(-47.5 -116)"/><path id="Line-184" data-name="Line" class="cls-3" d="M1851.72,320.19V407" transform="translate(-47.5 -116)"/><path id="Line-185" data-name="Line" class="cls-3" d="M1862.57,320.19V407" transform="translate(-47.5 -116)"/><path id="Line-186" data-name="Line" class="cls-3" d="M1873.42,320.19V407" transform="translate(-47.5 -116)"/><path id="Line-187" data-name="Line" class="cls-3" d="M1884.27,320.19V407" transform="translate(-47.5 -116)"/><path id="Line-188" data-name="Line" class="cls-3" d="M1895.13,320.19V407" transform="translate(-47.5 -116)"/><path id="Line-189" data-name="Line" class="cls-3" d="M1906,320.19V407" transform="translate(-47.5 -116)"/></g><g id="Group-4-22" data-name="Group-4"><path id="Line-190" data-name="Line" class="cls-3" d="M1906,320.19h-86.82" transform="translate(-47.5 -116)"/><path id="Line-191" data-name="Line" class="cls-3" d="M1906,331h-86.82" transform="translate(-47.5 -116)"/><path id="Line-192" data-name="Line" class="cls-3" d="M1906,341.89h-86.82" transform="translate(-47.5 -116)"/><path id="Line-193" data-name="Line" class="cls-3" d="M1906,352.74h-86.82" transform="translate(-47.5 -116)"/><path id="Line-194" data-name="Line" class="cls-3" d="M1906,363.59h-86.82" transform="translate(-47.5 -116)"/><path id="Line-195" data-name="Line" class="cls-3" d="M1906,374.45h-86.82" transform="translate(-47.5 -116)"/><path id="Line-196" data-name="Line" class="cls-3" d="M1906,385.3h-86.82" transform="translate(-47.5 -116)"/><path id="Line-197" data-name="Line" class="cls-3" d="M1906,396.15h-86.82" transform="translate(-47.5 -116)"/><path id="Line-198" data-name="Line" class="cls-3" d="M1906,407h-86.82" transform="translate(-47.5 -116)"/></g></g></g></g></g></g><g id="Desktop-12" data-name="Desktop"><g id="Icons_Desktop_1312px-12" data-name="Icons Desktop 1312px"><g id="Align-element-do-12" data-name="Align-element-do"><g id="Group-74-12" data-name="Group-74"><rect id="Background-12" data-name="Background" class="cls-2" x="1539.05" y="179.41" width="135.89" height="135.89"/><g id="Grid-02-12" data-name="Grid-02"><g id="Group-4-23" data-name="Group-4"><path id="Line-199" data-name="Line" class="cls-3" d="M1611.32,320.19V407" transform="translate(-47.5 -116)"/><path id="Line-200" data-name="Line" class="cls-3" d="M1622.17,320.19V407" transform="translate(-47.5 -116)"/><path id="Line-201" data-name="Line" class="cls-3" d="M1633,320.19V407" transform="translate(-47.5 -116)"/><path id="Line-202" data-name="Line" class="cls-3" d="M1643.88,320.19V407" transform="translate(-47.5 -116)"/><path id="Line-203" data-name="Line" class="cls-3" d="M1654.73,320.19V407" transform="translate(-47.5 -116)"/><path id="Line-204" data-name="Line" class="cls-3" d="M1665.58,320.19V407" transform="translate(-47.5 -116)"/><path id="Line-205" data-name="Line" class="cls-3" d="M1676.43,320.19V407" transform="translate(-47.5 -116)"/><path id="Line-206" data-name="Line" class="cls-3" d="M1687.29,320.19V407" transform="translate(-47.5 -116)"/><path id="Line-207" data-name="Line" class="cls-3" d="M1698.14,320.19V407" transform="translate(-47.5 -116)"/></g><g id="Group-4-24" data-name="Group-4"><path id="Line-208" data-name="Line" class="cls-3" d="M1698.14,320.19h-86.82" transform="translate(-47.5 -116)"/><path id="Line-209" data-name="Line" class="cls-3" d="M1698.14,331h-86.82" transform="translate(-47.5 -116)"/><path id="Line-210" data-name="Line" class="cls-3" d="M1698.14,341.89h-86.82" transform="translate(-47.5 -116)"/><path id="Line-211" data-name="Line" class="cls-3" d="M1698.14,352.74h-86.82" transform="translate(-47.5 -116)"/><path id="Line-212" data-name="Line" class="cls-3" d="M1698.14,363.59h-86.82" transform="translate(-47.5 -116)"/><path id="Line-213" data-name="Line" class="cls-3" d="M1698.14,374.45h-86.82" transform="translate(-47.5 -116)"/><path id="Line-214" data-name="Line" class="cls-3" d="M1698.14,385.3h-86.82" transform="translate(-47.5 -116)"/><path id="Line-215" data-name="Line" class="cls-3" d="M1698.14,396.15h-86.82" transform="translate(-47.5 -116)"/><path id="Line-216" data-name="Line" class="cls-3" d="M1698.14,407h-86.82" transform="translate(-47.5 -116)"/></g></g></g></g></g></g></g><text class="cls-8" transform="translate(1391.12 162.95)"><tspan class="cls-13">U</tspan><tspan x="5.3" y="0">ser</tspan></text><text class="cls-8" transform="translate(1598.31 162.95)"><tspan class="cls-9">P</tspan><tspan x="4.18" y="0">a</tspan><tspan class="cls-10" x="8.16" y="0">r</tspan><tspan x="11.06" y="0">tner</tspan></text><text class="cls-8" transform="translate(1794.82 162.95)">Cloud se<tspan class="cls-20" x="29.66" y="0">r</tspan><tspan x="32.57" y="0">vi</tspan><tspan class="cls-13" x="38.48" y="0">c</tspan><tspan class="cls-21" x="42.13" y="0">es </tspan></text><text class="cls-8" transform="translate(1386.22 330.04)"><tspan class="cls-22">D</tspan><tspan x="5.54" y="0">evi</tspan><tspan class="cls-18" x="15.58" y="0">c</tspan><tspan x="19.24" y="0">e</tspan></text><text class="cls-8" transform="translate(1590.82 330.04)"><tspan class="cls-22">R</tspan><tspan x="4.48" y="0">eti</tspan><tspan class="cls-23" x="13.29" y="0">r</tspan><tspan x="15.91" y="0">eme</tspan><tspan class="cls-17" x="31.08" y="0">n</tspan><tspan x="35.63" y="0">t</tspan></text><text class="cls-8" transform="translate(1801.83 330.04)">Ne<tspan class="cls-24" x="9.58" y="0">t</tspan><tspan class="cls-23" x="12.39" y="0">w</tspan><tspan x="18.39" y="0">o</tspan><tspan class="cls-22" x="22.92" y="0">r</tspan><tspan x="25.66" y="0">k</tspan></text><path class="cls-25" d="M1824.34,344.58c.36.18.9,0,.8.63a7.18,7.18,0,0,1-1.34,2.39,9.7,9.7,0,0,0-.76,1.13,3.73,3.73,0,0,0-.4,1.34l.58.33a42.29,42.29,0,0,0-2,4.27,35.57,35.57,0,0,0-.14,8.68c.23-.08.45-.12.54.15a16.47,16.47,0,0,1,.18,2.05,20.82,20.82,0,0,0,.13,2.44c.08.24.16.48.23.72a.84.84,0,0,0,.55.18c.09.75.18,1.42.26,2a35.29,35.29,0,0,0,6.57,10.58,34.87,34.87,0,0,0,9.79,7.5l2.56.77a21.46,21.46,0,0,1,2.38.74c2.14.92,4.66,2.51,6.84,3.26.19-1.13,1.67-1.61,2.94-2.16s2.4-1.27,2.15-2.49l1,.23a9.85,9.85,0,0,0,1,.1c.66,0,1.17,0,1.24-.38a8.28,8.28,0,0,1,1.29-2.92,8.17,8.17,0,0,1,2.87-2.44c1-.33,2.69.18,3-.27a.31.31,0,0,0,0-.49,6.16,6.16,0,0,0-.53-.43c-.39-.29-.74-.57-.54-.93a29,29,0,0,1-10.52-1,20.22,20.22,0,0,1-9.15-5.4,9,9,0,0,1-2.88-2.78,17.27,17.27,0,0,1-2.8-6.41,20.82,20.82,0,0,1-.2-7.64,15.78,15.78,0,0,1,1.65-5l.15-.36c.14-.26.28-.52.41-.8s.32-.51.47-.78c.27-.56.62-1.07.92-1.6a17.93,17.93,0,0,0,1.38-2.75,18.54,18.54,0,0,1,.49-2.4,4.63,4.63,0,0,0-1.18-.71c.72-.34,1.26-.4,1.46-.87a1.78,1.78,0,0,0,.75-1.7,4.67,4.67,0,0,0-1.27-2,1.44,1.44,0,0,1-.51-1.14,1.07,1.07,0,0,0-1-1,10.66,10.66,0,0,1,2.59-.28c.06-.33-.78-.24-1.5-.08s-1.36.32-1.14-.3c1.07,0,2.2-.55,3.37-.46-.17-.45-1.22-.57-2.17-.51s-1.82.22-1.85-.22a4.5,4.5,0,0,1,2,0c.81.09,1.53.17,1.67-.36.06-.24-1.23-.25-1.85-.17,1.89-.43,3.57-.48,4.32-.77.38-.14.52-.36.3-.7a4.13,4.13,0,0,0-1.91-1.15c1.57.11,3.67,1.16,5.25,1.9v0a12.41,12.41,0,0,0-2.84-1.43,12.58,12.58,0,0,1,2.76,1.14,4,4,0,0,0-.28-.65,7.17,7.17,0,0,0-2.12-1.07,14.83,14.83,0,0,1,1.94.74,7,7,0,0,0-1.37-1.59c-2.29-1.45-4.87-2.43-6.26-2.3a18.49,18.49,0,0,0-4.09.67c-.65.19-1.32.42-1.94.67a18.83,18.83,0,0,0-1.76.8,24.34,24.34,0,0,0-5.65,4,32,32,0,0,0-3.89,4.49A33.21,33.21,0,0,0,1824.34,344.58Z" transform="translate(-47.5 -116)"/><path class="cls-25" d="M1870.59,342.56c.19-.36,0-.9.63-.8,1.88.51,2.44,2.42,4.08,3.14l.49-.44a24.57,24.57,0,0,1,2.56,3.54,30.42,30.42,0,0,1,4.94,6.28c.19-.17.37-.3.56-.09a12.14,12.14,0,0,1,1.41,4,6.13,6.13,0,0,1,.3.64.84.84,0,0,0,.55.13,11.55,11.55,0,0,1,.25,2,23.45,23.45,0,0,1,1.14,5.9,24.37,24.37,0,0,1-2.75,12.85,22.11,22.11,0,0,1-4.3,5.81,12.82,12.82,0,0,1-10,5.55,28.26,28.26,0,0,1-5.13,0c.09.58-.32,1.07-1,1.46a10.79,10.79,0,0,1-2.65,1c-1.93.5-3.94.71-3.42,2.11-.61-.21-1.29-.43-2-.72s-1.34-.55-1.93-.81c-1.19-.52-2.12-.91-2.37-.68a4.85,4.85,0,0,1-3.69,1.18c-1.79-.08-4.31-.86-7.37-3a19.85,19.85,0,0,1-3.15-3.58,13,13,0,0,0-2.07-2.57c-.66-.34-.46.48-.15,1.42s.62,1.84-.12,1.44a46,46,0,0,0,12.34,11.38,40.23,40.23,0,0,0,4.07,2.15c.72.31,1.46.6,2.2.89s1.49.49,2.24.73a36.35,36.35,0,0,0,9.13,1.4,38.54,38.54,0,0,0,25.34-8.67,40.59,40.59,0,0,0,6.34-6.57,51.17,51.17,0,0,0,5.7-12.13,41.71,41.71,0,0,0,1.81-10.37,41.28,41.28,0,0,0-1.12-11.7,45.54,45.54,0,0,0-10.63-19.84,49.42,49.42,0,0,0-12.48-9.75l-1.08-.51a40.25,40.25,0,0,0-10.68-3.67,33.51,33.51,0,0,0-10.34-.42,39.09,39.09,0,0,0-8,2.4,21.25,21.25,0,0,1,3.52.7c-2.65.14-5.39.69-6.31,1.38-2.72,1.3-3,2.15-2.48,2.54a30.71,30.71,0,0,0,3.2,1.12c.78.14.76.6.85,1s.27.81,1.34.94a24.6,24.6,0,0,0-3.56,1c0,.34,1-.15,2-.44s1.89-.46,1.51.17a12.24,12.24,0,0,0-4.08,1.42c.39.29,1.52-.07,2.61-.3s2.13-.36,2.11.09a14.4,14.4,0,0,1-2.26.18c-.92.08-1.74.33-1.64.88,0,.21,1.26-.24,1.92-.39-1.94.75-3.1,1.78-3.33,2.44a.48.48,0,0,0,.29.69,4.39,4.39,0,0,0,1.68.09c-1,.39-2.47.79-3.17,1.6h0a16.62,16.62,0,0,1,1.71-.91,11.86,11.86,0,0,0-1.47,1l.52.16a7.92,7.92,0,0,0,1.19-.54c-.33.19-.63.4-.94.61.45.12.88.21,1.33.31,1.43-.1,2.92.45,3.59.26a23.76,23.76,0,0,1,4.77-.5,37,37,0,0,1,5.34.39A34.29,34.29,0,0,1,1870.59,342.56Z" transform="translate(-47.5 -116)"/><path class="cls-26" d="M1842.63,337.86c-6.42,3.45-11.51,11.45-9,18.9,2.19,6.59,9.61,6.83,14.54,2.95a12.67,12.67,0,0,0,1.09-18.75c-5.58-5.61-9.65.22-10.24,6.18-.09.89,2,1.87,2.08.86.15-1.54.44-5.2,1.85-6.09l5.56.42,1.23,2a11.92,11.92,0,0,1,1,3.51,11.45,11.45,0,0,1-7,12c-2.4,1-2.3.8-5.09-.55s-3.15-1.62-3.44-4.53a13.88,13.88,0,0,1,.91-6.08,17,17,0,0,1,8.22-9.28c.86-.46-.9-1.91-1.69-1.49Z" transform="translate(-47.5 -116)"/><path class="cls-26" d="M1850.1,364.89c-4.1,6.82-5.27,15.13,0,21.63,5.72,7,14.32,2.67,14-6-.21-5.71-3.48-15.06-10.45-14.94-3.85.07-9.52,1.42-8.22,6.17.84,3.07,3.25,6,5.27,8.33.94,1.09.07-.85-.25-1.23-5-5.88-5.57-8.68.08-10.47,4.26-1.34,7.68-1.67,10.43,3.41,2,3.73,2.71,9.44.38,13.17-3.91,6.23-11.67,3.4-13.33-4.26-1-4.84.89-9.8,3.34-13.87.32-.53-1.23-2-1.28-1.92Z" transform="translate(-47.5 -116)"/><path class="cls-26" d="M1873.22,360.79c-4,3.7-6.75,12.24-2.2,16.74,3.38,3.35,7.15.43,8.79-3,1.85-3.86,3.78-12.84-1.44-15-4.8-2-9.57,2.2-10.53,6.72-.08.4,2.13,1,2.19.74a8.85,8.85,0,0,1,2.09-4.35c1.24-1.34,4.48-3.77,6.34-1.86,1.25,1.29,1,5,.88,6.68a18.1,18.1,0,0,1-1.71,6.34c-.91,1.89-2.59,5.12-5.16,3.36-1.33-.9-1.46-4.35-1.46-5.85a13.24,13.24,0,0,1,4.4-9.77s-1.74-1.14-2.19-.73Z" transform="translate(-47.5 -116)"/><path class="cls-26" d="M1867.51,338c-3.59,3-8.54,7.82-5.79,13a6.38,6.38,0,0,0,8.68,2.6c7.47-4.32,1.35-22.27-5.35-16.62-.52.44,1.49,1.38,2,.93,3-2.54,4.51,5.61,4.65,7.11.25,2.81-.47,5.83-3,7.44-5.35,3.42-6-4.51-4.74-7.33,1.18-2.56,3.44-4.42,5.55-6.2.51-.43-1.5-1.38-2-.92Z" transform="translate(-47.5 -116)"/><path class="cls-26" d="M1882.47,346.33a9.09,9.09,0,0,0-.15,6.15,2.54,2.54,0,0,0,.74,1.24,1.89,1.89,0,0,0,2.35-.17,3.58,3.58,0,0,0,1.06-2.26,6.5,6.5,0,0,0-3.48-6.52" transform="translate(-47.5 -116)"/><path class="cls-26" d="M1870.71,389.45c1.32,2.8,3.69,5.32,7,5.31,2.87,0,5.59-1.91,5.57-5s-2.61-6-5.26-7.46c-2.5-1.38-6.51-2-7.54,1.45-.33,1.12,2,1.08,2.27,0,.77-2.6,5,.61,5.85,1.42,1.32,1.27,2.61,3.23,2.4,5.17-.26,2.34-2.8,3.17-4.76,2.21a8,8,0,0,1-3.41-4c-.45-.95-2.63-.27-2.11.82Z" transform="translate(-47.5 -116)"/><path class="cls-26" d="M1832,367.05a6,6,0,0,0,2.53,7.62c1.79,1.11,5.92,2.2,6.56-.77s-2.06-6.92-4.13-8.67-5.23-2.75-7.85-1.43c-.57.28,1.19,1.63,1.81,1.31,4.19-2.1,7.1,2.54,8,6.08.62,2.54-1,3.87-3.39,2.66s-2.42-3.53-1.5-5.67c.28-.65-1.75-1.71-2-1.13Z" transform="translate(-47.5 -116)"/><path class="cls-26" d="M1886.71,369c0,2-.12,5.7,1.8,7,1.62,1.1,4.19.09,5.61-.91,4-2.86-.28-8.94-4-9.77-.77-.17-2.42,1.36-1.35,1.6a5.73,5.73,0,0,1,3.33,2.46,11.87,11.87,0,0,1,.89,1.37c.65,1.18.92,1.76.18,2.88-1.49,2.24-3.52,1-4-1.14a17,17,0,0,1-.39-4.38c0-.88-2,.06-2.06.9Z" transform="translate(-47.5 -116)"/><path class="cls-27" d="M1523.71,273.32" transform="translate(-47.5 -116)"/><path class="cls-28" d="M1641.19,329.41c-.3.27-.52.62-.77.63-.63-.11.06-1.35-.58-1.46l-.49.43c-.09-.47-.13-1-.23-1.55a11.1,11.1,0,0,0-2.06-1.25c-.15.19-.28.36-.4.38-.35-.09-.54-.54-.85-.88l-.23,0a2.13,2.13,0,0,0-.38.35,1.87,1.87,0,0,1-.34-.47,39.07,39.07,0,0,0-7.81-.22,7.62,7.62,0,0,1-1.91.57c-.67-.11-1.16-.87-1.67-1.23-1,2-2.85,2.36-3.7,4.55-.31-.23-.79-.57-1.12,0-1,1.68-2.3,3.55-3.74,4.13-.49.06-.66-1-1-.67-.48.45-.16,1.46-.65,1.92,2.35,2,5,2.45,7.07,3.82.64-.21,2.2.39,3.59,1.29a9,9,0,0,1,2.92,2.77l.1.08a2.6,2.6,0,0,0,2.25,1.19l2-.37c.21-.35.42-.69.64-1,.18.3.34.61.75.47,1.24,0,1.94-1,3-2.16.42-.6,1.45-1,1.8-1.68l.32.6c.55-.36-.75-.49.22-1,0,.37.45.37.58.62.66-.6-.29-1,.43-1.47.26,0-.5,1.35.42.75.18-.11,0-.36,0-.49a1.57,1.57,0,0,0,2.41-1c.15.26,0,.86.31,1h0c-.06-.14,0-.49-.1-.61l.26.46.32-.33a.84.84,0,0,0,0-.48l.17.31c.24-.27.46-.55.66-.82.33-.75.92-1.7.8-1.91A17.62,17.62,0,0,0,1641.19,329.41Z" transform="translate(-47.5 -116)"/><path class="cls-29" d="M1625.15,420c-.18-.36-.64-.57-.3-1,1.18-1.08,2.9-.41,4.09-1.42l-.19-.64c1.19-.25,2.45-.46,3.71-.67,2-1,4.1-2,6.14-3-.13-.21-.23-.41,0-.57a16.5,16.5,0,0,1,3.44-1l.53-.28a.84.84,0,0,0,.06-.55c.59-.15,1.13-.25,1.63-.33a80.27,80.27,0,0,1,20-7.23,20.79,20.79,0,0,1,4.82-1.33,16.68,16.68,0,0,1,3.78.33c1.3.24,2.57.56,3.67.77,0-1.17,1.45-1.77,2.85-2.38s2.74-1.12,2.44-2.4c1.59.39,3.91,1.19,4.23.6.93-1.75,2.85-3.63,7.73-3,1.87.4,4.08,2.46,4.85,2.37.55-.08.25-.62-.18-1.2s-.81-1.15-.2-1.21a59.77,59.77,0,0,0-19.9-6.45,93.26,93.26,0,0,0-20.52-.51c-.58.15-1.57.36-2.87.62s-2.92.57-4.74.94a125.39,125.39,0,0,0-12.48,3.32,175,175,0,0,0-20.91,8.6l-.6.36a39.28,39.28,0,0,0-10.56,7.3c-1,1.34-2,2.77-3,4.22a23.18,23.18,0,0,1,2.32-.21c-1.37.87-2.74,1.75-3,2.45-2.23,2.81,0,2.6,2,3.13,1.16,0,.73,1.6,2.32,1.36-.88.55-1.3.86-2.17,1.43.27.6,2.42-2.13,2.45-.83-1,.36-1.64,1.35-2.51,1.92.81.51,3.12-1.81,3.49-1-.34.46-3,.71-2.58,1.7.09.2,1-.37,1.38-.66-2.4,2.11-3.15,4-.15,3.25a20.05,20.05,0,0,0-3,1.77h0c.45-.28,1.31-.64,1.7-.92l-1.47,1c.17.07.35.12.53.18a5.68,5.68,0,0,0,1.24-.6l-1,.67a9.15,9.15,0,0,0,1.42.22c1.53-.28,3.22-.2,3.84-.62C1614.73,425.59,1620,422.72,1625.15,420Z" transform="translate(-47.5 -116)"/><path class="cls-28" d="M1694,353.56c-.4,0-.75.47-1-.09-.65-1.74.43-3.45-.36-5.19l-.66,0c0-1.45-.06-3-.19-4.49a52.93,52.93,0,0,0-3.17-7.57c-.19.16-.38.27-.56.06a33.13,33.13,0,0,1-1.6-3.91l-.41-.57a.86.86,0,0,0-.57,0c-.29-.64-.51-1.23-.72-1.78a85.7,85.7,0,0,0-7.58-8.78,104.58,104.58,0,0,0-8.86-8,50,50,0,0,1-4.5-2.7c-1.87-1.52-3.84-3.93-5.69-5.45-.56,1-2.15.86-3.63.86s-2.85.15-3,1.4c-1.13-.87-3-2-3.36-1.47a7.19,7.19,0,0,1-2.51,2.06,8.62,8.62,0,0,1-4.08.77c-1.22-.21-2.77-1.52-3.3-1.27a.3.3,0,0,0-.18.46,4,4,0,0,0,.34.64c.27.45.52.88.13,1.09a47.09,47.09,0,0,1,11.4,6.45,53.41,53.41,0,0,1,10.3,10.39c1.43,1,6,6.57,9.26,12.92a52.58,52.58,0,0,1,3.89,9.4,34,34,0,0,1,1.38,6.8l.1.52a91.21,91.21,0,0,0,1.24,9.49c.45,1.24.94,2.56,1.35,3.92.46-.52.95-1,1.37-1.44-.22,1.32-.53,2.59-.24,3.18.29,3,1.78,1.79,3.59.94.85-.71,1.64.7,2.61-.55-.24,1-.36,1.5-.65,2.49.29.14.43-.65.55-1.36s.27-1.34.72-.88c-.44.93-.32,2.11-.61,3.12.47-.06.78-.93,1.06-1.74s.49-1.57.9-1.41a5.09,5.09,0,0,1-.73,1.63c-.36.64-.59,1.25-.09,1.49.2.1.5-.94.65-1.46a8.19,8.19,0,0,0,0,3.61c.28.61.89.51,1.92-.87a15,15,0,0,1-.78,1.76,7.72,7.72,0,0,0-.73,1.81h0c.23-.54.78-1.42,1-1.93l-.7,1.88.54-.18a7,7,0,0,0,.75-1.37l-.48,1.26a8.82,8.82,0,0,0,1.34-.77c.59-.67,1.22-1.33,1.76-1.93a4.88,4.88,0,0,0,1-1.59A50.94,50.94,0,0,0,1694,353.56Z" transform="translate(-47.5 -116)"/><path class="cls-30" d="M1631.78,334.94a3.86,3.86,0,0,1-4-.49c-1.23-1-1.08-1.06-.24-2.61.23-1.61.77-1.91,1.6-.92a3.69,3.69,0,0,1,1.32,1.19.47.47,0,0,0,.66,0c.41-.51,6,2.57,6.32,2.72a23,23,0,0,1,7.19,5.52c3.46,4.1,7,13.24,1,16.88a.66.66,0,0,0,.66,1.14c4.71-2.74,4.34-9.24,2.51-13.63-2.64-6.33-8-9.43-13.87-12.24-.83-.4-1.8-1.7-2.76-1.85-1.38-.22-.85.66-2.15-.37s-3.07-1.36-4.06.12c-2.32,3.5,3.18,6.44,6,4.91.2-.11.06-.46-.15-.37Z" transform="translate(-47.5 -116)"/><path class="cls-30" d="M1631.57,341.23a5.19,5.19,0,0,0,6.57-.52c2.21-2,2.61-5.32,2.07-8.11a26,26,0,0,0-2-5.53c-.88-2-1.59-4.43-2.88-6.2-1.78-2.45-4.4-1.22-6.25.42a52.37,52.37,0,0,1-5.57,4.52c-.67.45-2.46,2-2.58.24-.07-.85,2-2.51,2.55-3a45.67,45.67,0,0,1,5.73-4.44c1.64-1.09,4.14-3.13,6.11-3.47,5.64-1,4.71,8.41,5.38,11.89a9,9,0,0,0,5.45,7.06,5.58,5.58,0,0,1,1.36.68c.71.76.78,3.7.17,4.49s-1.67,1.51-2.39,2.33a5.94,5.94,0,0,0-1.73,4.12,7.85,7.85,0,0,0,.16.95L1644,348c-2.69,1.38-4.06,1.21-4.11-.49a17.92,17.92,0,0,0-.54-2.6c-.69-1.42-2-1.89-3.46-2.25a.71.71,0,0,0-.37,1.37c1.93.48,2.68,1.8,3,3.57a6.14,6.14,0,0,0,.51,1.9,3.49,3.49,0,0,0,3.08,1.89,3.37,3.37,0,0,0,2.89-1.8,3.43,3.43,0,0,0,.36-2c-.14-1.95-.57-3.14.76-4.86,1.72-2.24,6-4.68,3.45-7.93-1.23-1.52-3.22-1.8-4.76-2.87-2.41-1.69-2.93-4.88-3.18-7.59-.31-3.33-.2-8-3.25-10.22a3,3,0,0,0-2.83-.4,29.16,29.16,0,0,0-6.89,3.8c-3,2-7.93,5-9,8.6-.2.69-.36,1.72.27,2.28,1,.85,2.33-.34,3.14-.84a43.13,43.13,0,0,0,6.39-4.95c1.71-1.58,3.51-3.18,5.5-.19a29.34,29.34,0,0,1,1.79,3.9c1.35,2.94,3,6.08,2.71,9.41-.27,3.75-3.83,7.28-7.6,5-.29-.17-.52.26-.26.45Z" transform="translate(-47.5 -116)"/><path class="cls-30" d="M1632.45,336.53c-5.61.27-11.09.93-14.76,5.64a93.1,93.1,0,0,1-7.46,8.77c-1.69,1.7-4,3.89-3.72,6.53a2,2,0,0,0,3,1.65,4.13,4.13,0,0,0,1.7-1.81,14.48,14.48,0,0,1,4.17-4.34c5-3.67,8.62-9.69,14.93-11.29l-.76-.43a14.88,14.88,0,0,0,5.58,7.56c1.87,1.33,3.64,2.32,4.84,4.34a22.75,22.75,0,0,1,2.24,6.48,42.27,42.27,0,0,1,1.07,7.42,8.81,8.81,0,0,1,0,2.76c-.9,2.37-3.09-.06-3.43-1.4a5.58,5.58,0,0,1,.43-4c.85-1.55,3.16-3.18,4.36-.23.63,1.55.23,3.34.93,4.94a.68.68,0,0,0,1.06.14c1.81-1.64,3.57-3.37,5.44-4.94l1.06-.84c2.24.09,3.19,1,2.86,2.86a29.94,29.94,0,0,1-.73,4.3c-.75,4-1.39,8.12-2.41,12.11a33,33,0,0,1-5.37,11.75c-2.1,2.84-4.57,5.42-6.46,8.42a19.66,19.66,0,0,0-2,4.15,13.78,13.78,0,0,0-.41,1.43c-1.47,1.21-2.54,1.05-3.22-.51a5.79,5.79,0,0,1-.51-3.05c.16-2.23,1.32-4.46,2.16-6.5.91-2.22,1.84-4.42,2.89-6.58,1.73-3.58,4.06-6.62,6.14-10,2-3.21,1-5.95-1-8.91-.52-.76-1.75,0-1.24.72,1.61,2.39,2.71,4.75,1,7.47-1.14,1.87-2.58,3.53-3.7,5.42a81.21,81.21,0,0,0-5.13,10.68c-1.31,3.16-3.35,6.8-2.32,10.32.56,1.93,2.55,4.12,4.79,3.25,1.08-.42,1.31-1.27,1.61-2.31a19.81,19.81,0,0,1,2.6-5.5c2.1-3.16,4.79-5.89,6.92-9,4.67-6.87,5.63-15.46,7.08-23.43.47-2.56,1.89-7.45-1.64-8.62a3.6,3.6,0,0,0-3.34.92c-2.13,1.62-4,3.65-6,5.45l1.06.14c-.94-2.12,0-5.61-2.44-6.95-1.76-.94-3.8.2-4.85,1.66a6.89,6.89,0,0,0-.67,6.44c.59,1.5,2.22,3.79,4.13,3.07,2.09-.78,1.85-3.87,1.75-5.6a44,44,0,0,0-2-10.84,12.83,12.83,0,0,0-4.34-6.81c-3.36-2.53-6.19-4.25-7.61-8.48a.64.64,0,0,0-.76-.43c-4.16,1.05-7.2,3.93-10.17,6.86a52.11,52.11,0,0,1-6,5.21,14.46,14.46,0,0,0-2.16,1.82,8.65,8.65,0,0,0-.8,1c-.71,1.06-.42,1.23-1.93,1.56-1.23.65-1.56.43-1-.67a2.58,2.58,0,0,1,.44-1.27A9.13,9.13,0,0,1,1610,353c.91-1,1.93-2,2.89-2.94a40.18,40.18,0,0,0,4.58-5.59c1.83-2.72,3.79-4.82,6.94-5.95a33.11,33.11,0,0,1,8.09-1.44c.31,0,.32-.51,0-.5Z" transform="translate(-47.5 -116)"/><path class="cls-30" d="M1639.33,374.16c-4.48.18-8,3.13-12.23,4.34a12.21,12.21,0,0,1-8.53-.32c-1.62-.72-3-1.58-4.83-1.5s-4.19,1.68-6.14,1c-3.68-1.24,1.34-1.54,2.1-1.59,1.21-.09,2.42-.1,3.62-.26a19.79,19.79,0,0,0,9.42-4.08c3.18-2.45,5.23-5.57,7.61-8.71,3.12-4.11,7.92-5.65,12.65-3.16s7.59,9.36,3.17,13.47a6.68,6.68,0,0,1-8.2.38,7.4,7.4,0,0,1-3-7.46c.13-.83-1.1-1.22-1.29-.36-1.73,7.57,7.87,14.29,13.71,8.17,6-6.33-.5-15.72-7.85-16.68a10.32,10.32,0,0,0-9.35,3.65c-3.29,3.78-5.5,7.95-9.86,10.73a17.85,17.85,0,0,1-6.46,2.61c-2.53.45-5.77-.21-8.15.89-2.63,1.23.36,3.62,2.08,3.83,2.53.31,4.76-1.51,7.3-1s4.42,2.1,7.1,2.19a18,18,0,0,0,7.59-1.72c3.14-1.36,6-3.59,9.51-3.91.33,0,.34-.54,0-.53Z" transform="translate(-47.5 -116)"/><path class="cls-30" d="M1665.12,321a24.61,24.61,0,0,0,.55,7.88,15.61,15.61,0,0,1,.15,5.66c-.32,1.6-1,3.1-1.43,4.67-1.24,4.76.7,9,2.73,13.22a29.17,29.17,0,0,1,2.69,7c.72,3.71-.75,6.84-2.3,10.11a22.06,22.06,0,0,0-2.2,6.38c-.46,3.3.21,6.58.26,9.88.06,3.65-1.35,6.31-2.72,9.56a20.5,20.5,0,0,0-1.61,7.92c0,1.34-.26,4.08,1.67,4.26s3.45-2.53,4.16-3.9c2.85-5.5,4.34-12.1,5.31-18.19,1-6.49,1.09-13.26,3.51-19.45,1.26-3.2,3.39-7.05,6.61-8.64,3.63-1.8,5.21,1.62,4.72,4.63a23.41,23.41,0,0,1-1.43,4.46c-2,5.28-1.88,10.8,3.52,13.94l-.28-1.08c-1.26,1.82-3.47,1.19-4.85,0-1.69-1.45-1.75-2.9-1-5a16.29,16.29,0,0,0,1-4.41c.09-1.13.35-2.54-.33-3.54-.39-.58-1-.65-1.47-1.1-1.66-1.61-.48-3.18.42-4.58.53-.81-.74-1.52-1.29-.75-1.27,1.79-2.54,4.44-.56,6.27.32.29.85.4,1.13.7,1,1.06.56,3.19.34,4.44-.29,1.68-1.58,3.06-1.78,4.7-.26,2.19,2.25,4.62,4,5.47a4.43,4.43,0,0,0,5.72-1.42.8.8,0,0,0-.28-1.08,8,8,0,0,1-3.86-9.19c.68-2.79,2.26-5.3,2.58-8.19.42-3.86-2-7.59-6.26-6.07s-7,6.67-8.51,10.73c-2.22,6.14-2.28,12.78-3.34,19.16a76,76,0,0,1-2.15,9.3c-.92,3.11-1.83,6.74-3.74,9.4s-2-.28-1.89-1.74a18.78,18.78,0,0,1,.87-4.82c.94-2.95,2.76-5.52,3.23-8.63a35,35,0,0,0-.15-7.92,19.49,19.49,0,0,1,1.82-10.36c2.13-4.57,3.7-8.63,2-13.64-1.85-5.44-6.44-10.62-5.32-16.69.55-2.95,1.92-5.51,1.71-8.58-.25-3.64-1.79-7-1.62-10.7,0-.2-.32-.25-.35-.05Z" transform="translate(-47.5 -116)"/><path class="cls-30" d="M1670.35,348.43c-.39,1.34-1.46,4.23,0,5.23,1,.67,2-.12,2.79-.72a3.74,3.74,0,0,1,4.56-.22c.37.29.7.62,1.09.89a3.94,3.94,0,0,0,2.11.86,3.81,3.81,0,0,0,3.45-2.77,10.12,10.12,0,0,0,.37-3.47,14.21,14.21,0,0,1,1.31-6.19,15.41,15.41,0,0,0,1.87-7.43,46.35,46.35,0,0,0-1.45-8.58c-.67-2.85-2.94-9-.65-11.48a.71.71,0,0,0-.31-1.16c-2.43-.82-4.36,1.36-4.4,3.68,0,1.69.8,3.3,1.3,4.87a20.49,20.49,0,0,1,1.1,7.49,12.94,12.94,0,0,1-2.09,6.44c-1.12,1.65-3.08,2.57-4.1,4.24-2,3.32,2.83,4.39,2.71,7.53q-.37,3.27-3.75,1.92a5.52,5.52,0,0,1-.91-1.35c-.4-.75-.57-1.63-1-2.36s-.75-.89-1.67-1.17a2.6,2.6,0,0,1-2.75-1.17,7.08,7.08,0,0,1-.82-2.88,30.8,30.8,0,0,1-.2-3.72c0-2.19.12-4.37.25-6.55.18-3.14,1.26-8.15-1.17-10.74-.7-.74-2-1.57-3.11-1.07s-1.44,2.79-1.78,3.86c-.27.84,1,1.16,1.31.36.24-.61.47-1.21.69-1.82,1.59-.51,2.45,0,2.59,1.42a14.07,14.07,0,0,1,.13,3.78c-.07,2.35-.26,4.68-.37,7-.16,3.34-.77,8.11,1.13,11.12a4.86,4.86,0,0,0,2.61,1.94,5.3,5.3,0,0,0,.88.07,1.65,1.65,0,0,1,1.33,1.33c.26.39.39.95.61,1.36,1,2,3,3.46,5.22,2.35a4.4,4.4,0,0,0,1.71-6.06c-.8-1.61-3.27-2.65-2-4.77.71-1.22,2.43-2.1,3.29-3.26a14.75,14.75,0,0,0,2.69-9.55,22.67,22.67,0,0,0-.93-5.29c-.32-1.07-.79-2.1-1.1-3.17-.43-1.49-.76-5.56,2.27-4.51l-.31-1.16c-2.51,2.7-.83,7.92-.12,11.06.59,2.62,1.29,5.23,1.63,7.9a14.63,14.63,0,0,1-1.47,8.82,14.6,14.6,0,0,0-1.48,5.6c-.07,1.57.34,3.47-.64,4.83-1.24,1.73-2.75,1-4.17,0a4.5,4.5,0,0,0-3.65-1.18c-.89.17-1.35.75-2.15,1.08s.25.8-1.38,0c-.9-.09-1.18-.53-.83-1.31a7.9,7.9,0,0,1,.29-1.75.28.28,0,0,0-.53-.15Z" transform="translate(-47.5 -116)"/><path class="cls-31" d="M1839.18,161.9c.1.39,1,.5-.13,1.09-1.72.79-3.66,1.24-5.78,2-.54.19-1.06.39-1.65.65a19.58,19.58,0,0,0-2.11,1.13,15.74,15.74,0,0,0-3.84,3.21l.18.78a18.09,18.09,0,0,0-5.35,14.86,21.62,21.62,0,0,0,2.79,7.43c.35.57.71,1.13,1.09,1.68s.83,1.09,1.14,1.47a29.25,29.25,0,0,0,2.13,2.29,29.89,29.89,0,0,0,4.74,3.71,38.84,38.84,0,0,0,4.86,2.49c-.06-.3,0-.53.61-.31s1.35.56,2.11.84l2.39,1c.84.38,1.71.59,2.6.9s1.82.6,2.74.81l1.66.23a.89.89,0,0,0,.69-.37c1.66.4,3.08.61,4.42.89,8.9.53,17-.38,24.84-.61a81.8,81.8,0,0,1,11.54.37l2.83.41,2.76.62c.53.11.78.18,1.13.28s.62.23.9.35.49.24.65.33l.18.09c.09,0-.06.08.32-.14a2.8,2.8,0,0,1,.81-.31h-.24l.26,0h0l-.16,0-.26-.09-.14-.07,0,0a.17.17,0,0,1,0,.15,1.38,1.38,0,0,1-.25.57,7.6,7.6,0,0,1-1.42,1.42,12,12,0,0,1-1.9,1.19,33.18,33.18,0,0,1-7.81,2c-2.88.49-5.76.84-8.25,1.13.55,1.09-2.2,2.34-4.83,3.45s-5.1,2.11-3.76,3.2c-1.74.09-4,.14-5.76.2s-3.23.11-3.39.44a5.6,5.6,0,0,1-3.66,2.69,15.37,15.37,0,0,1-4.43.67,23.75,23.75,0,0,1-7.07-1,23.06,23.06,0,0,1-7-3.93c-.54-.4-1-.86-1.5-1.27s-.9-.79-1.26-1.17a13.48,13.48,0,0,0-1.7-1.55c-.45-.26-.54-.12-.46.22a3,3,0,0,0,.4.78c.2.33.44.68.68,1,1,1.42,2.12,2.73.77,2.05a32.08,32.08,0,0,0,6,4.12,37.34,37.34,0,0,0,6.27,2.63,50.48,50.48,0,0,0,12.09,2.16c1.94.11,3.84.16,5.7.12s3.69-.14,5.42-.26q5.25-.37,10.46-1.16t10.34-2c1.71-.4,3.63-.85,5.74-1.56a30.5,30.5,0,0,0,6.75-3.17c.58-.38,1.15-.78,1.73-1.22a21.17,21.17,0,0,0,2-1.76,16.25,16.25,0,0,0,2.11-2.66,14.06,14.06,0,0,0,1.75-4,13.77,13.77,0,0,0,.35-4.88,14.8,14.8,0,0,0-.49-2.4,14,14,0,0,0-.83-2.12,15.83,15.83,0,0,0-4.32-5.33,20.52,20.52,0,0,0-4.1-2.56c-.65-.31-1.34-.6-2-.84l-1.45-.48-2.9-.95-2.9-.71c-1.36-.24-3.6-.51-6.52-.85s-6.43-.52-10.22-.59c-7.64-.24-16.45.07-24.16-1.26a31.89,31.89,0,0,1-10.28-3.38l-.29-.14-.21-.12-.4-.24c-.25-.19-.53-.35-.77-.55a12.74,12.74,0,0,1-1.37-1.22c-.17-.22-.39-.42-.52-.62a1.26,1.26,0,0,1-.15-.2,1.75,1.75,0,0,1-.19-.39,1.15,1.15,0,0,1,.45-1.34,8,8,0,0,1,1.12-.56c.79-.35,1.65-.65,2.46-.92l1.22-.45c3.71-1.23,7.88-2.42,12-3.41s8.06-1.8,11.35-2.54c3-.8,6.14-1.58,9.32-2.22-1.47-.35-2.85-.75-4.06-1.07,3.26-.06,6.51.08,7.79-.28,3.5-.32,4.31-.74,3.91-1.39s-2.05-1.44-3.4-2.3c-2-.78.8-1.74-2.37-2.52,1.16,0,2,.08,2.88.15s1.74.1,2.89.22c.16-.33-1.63-.37-3.24-.41s-3.07-.08-2.25-.61c2.23.3,4.75.05,7.07.3-.36-.47-2.37-.75-4.25-.91s-3.61-.27-3.42-.72c1.3-.23,6.52,1.47,7,.47.11-.22-2.24-.45-3.42-.51,3.64,0,6.48,0,7.62-.29s.57-1-2.75-1.91c1.17.1,2.57.43,4,.7a41.13,41.13,0,0,0,4.07.71l0,0c-1.22-.21-3.29-.8-4.44-.93,1.4.17,2.8.45,4.19.67-.19-.18-.42-.37-.66-.56a24.64,24.64,0,0,0-3.16-.73c.93.12,1.86.31,2.8.45a20.54,20.54,0,0,0-2.25-1.36c-3.27-1.14-6.47-2.46-8.34-2.57A108.12,108.12,0,0,0,1839.18,161.9Z" transform="translate(-47.5 -116)"/><path class="cls-32" d="M1880,174.82a30.36,30.36,0,0,1,3.18.41c2.78.64,5.58,1.24,8.3,2.08a48.61,48.61,0,0,0,9.24,1.76,27.38,27.38,0,0,1,8.6,2.05,4.78,4.78,0,0,1,1.36.89c.69.67.55,1.48-.35,1.78-1.11.36-2.27.56-3.41.82-1.63.37-3.28.67-4.88,1.13-1,.28-1,.91-.24,1.54a7.36,7.36,0,0,0,4.2,1.39c3.56.2,7.13.16,10.69.39,2.55.16,5.09.57,7.63,1a3.41,3.41,0,0,1,1.5.79.93.93,0,0,1-.35,1.72,46.21,46.21,0,0,1-10.52,2.5,98.94,98.94,0,0,1-13.11.26c-2.75-.09-5.49-.38-8.24-.47-2.09-.07-4.18.13-6.27.06-3-.11-5.92-.31-8.86-.57a4,4,0,0,1-1.85-.79,1.11,1.11,0,0,1,.19-2,16.55,16.55,0,0,1,5.54-1.26c2.62-.32,5.25-.59,7.86-.93.33,0,.61-.45.92-.68-.29-.3-.54-.78-.88-.86a40.18,40.18,0,0,0-4.84-.95,68.83,68.83,0,0,0-13.54,0c-4.36.36-8.71.86-13.07,1.22-2.76.23-5.53.37-8.3.48-3.15.14-6.32.3-9.47.27-2.77,0-5.53-.28-8.29-.48a4.2,4.2,0,0,1-1.65-.49c-.4-.21-1-.67-.94-1a1.64,1.64,0,0,1,.87-1.17,24.11,24.11,0,0,1,3.71-1.24,66.7,66.7,0,0,1,14-1.48c3.51-.14,7,0,10.54-.17a63.22,63.22,0,0,0,6.69-.91,5,5,0,0,0,1.29-.64,3,3,0,0,0-2.21-1.06c-1.09-.08-2.19,0-3.29-.07a8.9,8.9,0,0,1-1.92-.28c-.83-.22-1-.94-.34-1.54a8.2,8.2,0,0,1,4.43-2c2.6-.47,5.21-.82,7.81-1.22.67-.1,1.35-.16,2-.24Zm-30.26,8.59,0-.22c-4.55.47-9.11.87-13.65,1.46a22,22,0,0,0-4.48,1.37c-.36.13-.6.59-.9.9a4.19,4.19,0,0,0,1.11.77,17.2,17.2,0,0,0,2.76.51c4.84.53,9.68.16,14.51,0,2-.05,4.08-.2,6.11-.35,2.85-.2,5.69-.43,8.53-.66,4.42-.35,8.83-.82,13.25-1a44.21,44.21,0,0,1,10.65.47,22.84,22.84,0,0,1,3,.73,1.38,1.38,0,0,1,1,1.5c-.09.76-.77.85-1.37.92-3.21.43-6.43.81-9.64,1.27a7.51,7.51,0,0,0-3.5,1.05c-.63.45-.63.86.09,1.18a5.27,5.27,0,0,0,1.34.44c4.23.75,8.51.57,12.78.7,2.77.1,5.55,0,8.32.22a96.92,96.92,0,0,0,12.17.15,47.23,47.23,0,0,0,9.38-1.47,30,30,0,0,0,3.55-1.26,1.2,1.2,0,0,0,.6-.8c0-.17-.32-.5-.56-.63a3.15,3.15,0,0,0-1.19-.39c-3-.32-6.09-.68-9.14-.89s-5.92-.16-8.86-.42a15.25,15.25,0,0,1-3.73-1.08,1.53,1.53,0,0,1-1-1.58,1.31,1.31,0,0,1,1.21-1.18c1.89-.38,3.8-.67,5.7-1a11.72,11.72,0,0,0,2.34-.63c.63-.26.65-.91.08-1.3a11,11,0,0,0-1.84-1,25,25,0,0,0-7.19-1.6,45.39,45.39,0,0,1-9.94-1.85,40.88,40.88,0,0,0-17.32-2.39,75,75,0,0,0-7.59,1.23,53.29,53.29,0,0,0-5.51,1.47c-.44.13-1.11.7-1.08,1,.08.72.87.57,1.42.62,1.71.15,3.44.24,5.15.44a2.2,2.2,0,0,1,1.11.65c.43.41.31.8-.23,1a13,13,0,0,1-1.45.6,29.33,29.33,0,0,1-8.23,1.05C1854.87,183.45,1852.28,183.41,1849.69,183.41Z" transform="translate(-47.5 -116)"/><path class="cls-33" d="M1838.79,219.88a5,5,0,0,0-3.4-1.06c-3.25-.18-6.5-.21-9.75-.36a45.88,45.88,0,0,1-8.9-.78c-.08,0-.18,0-.23,0l-1.16-.95c.35-.31.65-.79,1.05-.92a59.18,59.18,0,0,1,6.33-1.7,84.18,84.18,0,0,1,9.34-1.28c2.86-.21,5.76,0,8.64,0q3.26,0,6.51-.32a7.72,7.72,0,0,0,2.31-.71c.3-.12.69-.47.7-.73a1.08,1.08,0,0,0-.64-.79,13,13,0,0,0-3.23-.86c-2.53-.17-5.08-.14-7.62-.22a4.69,4.69,0,0,1-1.54-.25c-.83-.31-.92-1-.15-1.44a15,15,0,0,1,3.06-1.37,36.82,36.82,0,0,1,13.38-1.24c3,.23,6.08.33,9.12.39,4.85.09,9.62.47,14.21,2.25,1.67.65,3.47,1,5.21,1.48.62.18,1.42.39,1.43,1.13s-.84.81-1.41,1c-1.91.74-3.93.48-5.91.58-3.69.2-7.38.33-11.06.63a23.9,23.9,0,0,0-4.11,1,2.38,2.38,0,0,0-.83.44c-1.06.8-1,1.88.24,2.35a22,22,0,0,0,3.86,1c5.73,1,11.54.85,17.33.81a57.77,57.77,0,0,1,13.75,1.3,8.22,8.22,0,0,1,2.24.9c.77.45.72,1-.14,1.23a19.93,19.93,0,0,1-4.9.9c-4.37-.08-8.72-.48-13.09-.62-3-.09-6,0-9,.11a2.86,2.86,0,0,0-1.32.43c-.58.35-.53.9.11,1.07.93.25,1.89.36,2.84.53a2.35,2.35,0,0,1,.68.13,9.33,9.33,0,0,1,.93.73c-.3.28-.56.72-.9.8a25.49,25.49,0,0,1-5,1,92.2,92.2,0,0,1-19.34-1.31,61.7,61.7,0,0,0-11.53-.68,35.55,35.55,0,0,1-8.94-1.11,9.76,9.76,0,0,1-1.2-.36c-.21-.1-.48-.32-.51-.51s.27-.46.47-.52a15.43,15.43,0,0,1,2.67-.62c1.87-.17,3.76-.19,5.64-.35a20,20,0,0,0,2.86-.52A4,4,0,0,0,1838.79,219.88Z" transform="translate(-47.5 -116)"/><path class="cls-31" d="M1437.12,355.54c.41,0,.8-.18,1,0,.42.65-.9,1.28-.48,1.93h.65c-.24.54-.58,1.11-.85,1.68a24.37,24.37,0,0,0,.64,3c.23,0,.45-.07.54,0,.2.41,0,1,0,1.62l.13.26a1.86,1.86,0,0,0,.52.07,3.46,3.46,0,0,1-.12.75c1.45,2.9,3.13,5.84,4.81,9a8.37,8.37,0,0,1,1.59,2,10.93,10.93,0,0,1-.07,3.23c2.29-.26,3.55,2,5.85,1.46,0,.65,0,1.62.62,1.64,2,0,4.25.44,5.52,2.11.31.66-.45,1.73,0,2,.64.34,1.33-.94,2-.59.43-5-.69-9.82-.95-14.86-1.12-1.67-2.21-13.2-1.93-16.2l0-.27a8.39,8.39,0,0,0-1.21-4.9c-.57-.59-1.27-1.19-1.94-1.78-.36.32-.73.61-1.09.88,0-.66,0-1.31-.4-1.53-1.06-1.31-2.17-.45-3.71.18-.66.42-1.74,0-2.41.62l0-1.08c-.66,0,.4,1.3-.68,1.07.23-.43-.2-.87-.19-1.3-.87.21-.25,1.51-1.12,1.5-.21-.22,1.12-1.28,0-1.29-.22,0-.23.43-.23.64-.41-1.3-1.49-2-2.6-.67,0-.42.43-1,.26-1.48h0c0,.22-.23.62-.23.82l0-.76-.45.17a1.16,1.16,0,0,0-.22.58v-.5c-.35.15-.68.32-1,.49-.67.64-1.66,1.28-1.67,1.6A47.24,47.24,0,0,0,1437.12,355.54Z" transform="translate(-47.5 -116)"/><path class="cls-34" d="M1422.14,354c.23,0,.49-.15.55.19.08,1-.74,1.81-.62,2.87l.37.11c-.23.79-.53,1.61-.73,2.46a44,44,0,0,0,.14,4.74c.13,0,.26-.06.31.09a16.71,16.71,0,0,1-.06,2.49l.09.41a.49.49,0,0,0,.3.14c0,.42,0,.79,0,1.14a83.8,83.8,0,0,0,4.14,13.61,20.59,20.59,0,0,1,1.5,2.79c.47,1.39.75,3.24,1.1,4.63,1.21-.58,2.87,2.47,3.94,1.39.23.88.69,2.18,1.06,2.11,1.15-.19,2.56,0,4.08,1.92.5.77.62,2.24,1,2.45.53.31.26-1.41.79-1.09-1.18-3.12-2.27-6.19-3.32-9.3a70.72,70.72,0,0,1-2.39-9.64,22.41,22.41,0,0,1-.91-3.73,61.65,61.65,0,0,1-.7-6.44,57.88,57.88,0,0,1,.47-11.56l0-.36c.2-1.08.32-2.28.43-3.44a17.46,17.46,0,0,0,.11-3.26c-.12-.89-.3-1.83-.46-2.77-.3.35-.6.67-.88.94a5,5,0,0,0,.3-2.13c0-2-1-1.13-2-.62-.52.44-.93-.44-1.52.31.15-.61.27-.9.45-1.5-.36-.17-.32,1.91-.8,1.34a12.42,12.42,0,0,0,.43-1.87c-.55.08-.76,2.06-1.2,1.85-.06-.37,1.11-1.55.54-1.83-.12-.05-.31.56-.4.86.33-1.93.06-3.16-1.09-1.59a15.36,15.36,0,0,0,.78-2.06h0c-.11.31-.39.83-.48,1.12l.34-1.09-.31.12a3.8,3.8,0,0,0-.37.79l.22-.72a4.89,4.89,0,0,0-.73.46,10.38,10.38,0,0,0-1.58,1.92A60.74,60.74,0,0,0,1422.14,354Z" transform="translate(-47.5 -116)"/><path class="cls-34" d="M1462.24,357.13a3.7,3.7,0,0,1-.21-1c.18-.44.75.81.93.36l-.15-.64c.27.23.61.5.91.74a5.06,5.06,0,0,0,1.12-.81,1.76,1.76,0,0,1-.13-.53c.12-.22.42-.07.69-.08l.07-.15a4.48,4.48,0,0,0-.11-.5.82.82,0,0,1,.34.06,51.57,51.57,0,0,0,2.14-5.29,6.76,6.76,0,0,1,.21-1.67c.26-.37.87-.15,1.24-.23-.93-2.11-.57-3.48-1.66-5.56.23,0,.57-.11.33-.71a17,17,0,0,1-1.5-5.24c.07-.33.71.28.61-.11-.16-.62-.83-1.14-1-1.76-1.65,0-2.64,1.33-4.1,1.84-.1,1.17-3.42,2.69-4.44,2.44l-.07.05c-.52,0-1.06.31-1.29,1.27-.07.57-.13,1.25-.2,1.92.17.36.33.71.5,1.05-.22,0-.44,0-.44.42-.25,1.06.23,2.14.74,3.64a22.24,22.24,0,0,0,.66,2.35H1457c.12.65.42-.42.53.65-.2-.21-.29.21-.46.21.23.86.62.21.78,1.07-.05.22-.7-1.07-.51,0a.25.25,0,0,0,.29.22,2.16,2.16,0,0,0,.19,2.57c-.17,0-.49-.41-.64-.23v0c.09,0,.28.21.36.21h-.3l.14.43c.1.12.19.21.27.21h-.2c.11.34.24.67.36,1a8.74,8.74,0,0,0,1,1.6A8.19,8.19,0,0,0,1462.24,357.13Z" transform="translate(-47.5 -116)"/><path class="cls-26" d="M1420,388.45a62.35,62.35,0,0,0,4.78-29.09c-.36-4.66-1-9.35,1-13.76a16.11,16.11,0,0,1,3.32-4.81c2.29-2.28,2.17-.59,2.32,2.14.26,4.48-1,8.89-1,13.36s1.29,8.44,3.12,12.45c4.21,9.26,6.84,17.66,5,27.91a3.44,3.44,0,0,0,1.7.34,38.33,38.33,0,0,0-.56-17.21c-1.47-5.32-4.5-10-6.26-15.16-1.86-5.52-1-10.72-.43-16.36.22-2.29,1.25-8-1.2-9.44-5.22-3-8.89,9.81-9,12.72-.3,6.13.93,12.16.34,18.32a62.27,62.27,0,0,1-4.73,18.25s1.6.58,1.7.34Z" transform="translate(-47.5 -116)"/><path class="cls-26" d="M1435.41,340.67l7.66-3.91c1.26-.64,4.24-2.66,5.31-2.67a5.47,5.47,0,0,1,5.37,3.75,109.38,109.38,0,0,1,4.52,16.33c1.21,5.53,2.17,11.12,3.07,16.71,1,6.24,3.74,16.4-5.7,17.29a20.69,20.69,0,0,1-9.12-1.45c-3.26-1.57-4.4-6-5.61-9.2a133.12,133.12,0,0,1-4.82-15.63c-1.42-5.67-3.7-12.73-.52-18.14,2.59-4.4,8-5.33,12.29-2.58,1.8,1.16,3.53,4.5,2.27,6.62-.65,1.11-6,1.22-7.13,1.3s-.52,1.49.41,1.42c3.39-.25,11.85-.59,9.58-5.89-1.6-3.74-6.3-6.3-10.21-6.52-15.58-.86-9.21,21.2-6.93,29.2a122,122,0,0,0,4.09,12.05c.91,2.26,1.84,5.51,3.7,7.21,3.3,3,10.64,3.81,14.75,2.57,5.34-1.61,6.29-6.32,5.7-11.32a246.52,246.52,0,0,0-4.39-24.7,140,140,0,0,0-3.7-13.63c-.76-2.25-1.57-5.3-3.82-6.59-1.76-1-3.47-.58-5.22.16-4.35,1.83-8.52,4.31-12.72,6.45-.89.46.4,1.55,1.17,1.17Z" transform="translate(-47.5 -116)"/><path class="cls-26" d="M1451.44,376.67c-2.25,1.24-2.25,4.24-.58,6,.34.35,1.13.73,1.62.42a5.11,5.11,0,0,0,2.15-5.91c-.43-1.52-3-1.54-2.47.34a3,3,0,0,1-1.31,3.1l1.62.42c-.52-.53.09-1.59.6-1.87,1.42-.78-.35-3.17-1.63-2.47Z" transform="translate(-47.5 -116)"/><path class="cls-26" d="M1458.07,343.38c1.78-1.91,4.68-4.64,7.43-4.95,3.18-.36,6.11,1,4.4,4.55-1.93,4-4.16,7.9-6.23,11.84-.3.56.26,1.62,1,1.35q6.28,4.45,2.7,8.28a23.61,23.61,0,0,0-1.82,2.18,6.71,6.71,0,0,0-.47,1.59c-.07.56.53,1,.68,1.46,1.46,4.41,1.48,4.65-2.88,6.33-.89.34-.1,1.87.69,1.56,2.4-.93,5.4-2.22,5.49-5.24a5.89,5.89,0,0,0-.74-2.54c-.16-.4-1-.57-1.1-.93-.45-1.57,1.15-2.87,1.89-4,2.78-4.07,1.54-12.79-5.13-10.29l1,1.35c2.25-4.27,5-8.55,6.82-13,.73-1.79,1.24-3.95-.19-5.6-3.77-4.33-12.14,2.07-14.77,4.9-.57.62.63,1.83,1.27,1.14Z" transform="translate(-47.5 -116)"/><path class="cls-26" d="M1450.23,355.43c-2-1.11-7.87-2.08-7.45,1.85.18,1.73,2.41,2.9,3.59,3.89,3.44,2.87,7.28,8.11,1.13,10.63-1.21.5.11,1.65,1.06,1.26,2.88-1.18,4.93-3,4.17-6.39a10.23,10.23,0,0,0-2.82-4.71c-.55-.56-1.15-1.07-1.75-1.58l-1.67-1.34q-3.6-2.1,2.37-2.49c.83.47,2.44-.52,1.37-1.12Z" transform="translate(-47.5 -116)"/><path class="cls-26" d="M1444.34,353a74.82,74.82,0,0,1,2.51,12.83c.06.53,1.51,1.76,1.43,1a75.75,75.75,0,0,0-2.59-13.17c-.14-.49-1.64-1.7-1.35-.7Z" transform="translate(-47.5 -116)"/><path class="cls-26" d="M1446.34,352a74.82,74.82,0,0,1,2.51,12.83c.06.53,1.51,1.76,1.43,1a75.75,75.75,0,0,0-2.59-13.17c-.14-.49-1.64-1.7-1.35-.7Z" transform="translate(-47.5 -116)"/><path class="cls-25" d="M1620.22,202.79c-.11-.39-.36-.74-.21-1,.54-.55,1.42.57,2,0l-.12-.64c.58.14,1.19.35,1.8.51,1-.33,1.9-.71,2.85-1.13-.07-.23-.13-.44,0-.54.39-.26,1-.14,1.62-.19l.24-.16a1.3,1.3,0,0,0,0-.52,3.81,3.81,0,0,1,.77,0,80,80,0,0,1,9.21-5.19,8.38,8.38,0,0,1,2.2-1.52,10.85,10.85,0,0,1,3.5.33c-.09-2.32,2.63-3.32,2.27-5.66.75.11,1.86.28,2-.37a8.52,8.52,0,0,1,1-2.91,3.9,3.9,0,0,1,1.29-1.18,4.64,4.64,0,0,1,2.48-.53,8,8,0,0,1,3.56,1.85,12.65,12.65,0,0,1,2,2.08c.55.72,1,1.46,1.23,1.79a.51.51,0,0,0,.46-.18l0-.05a1,1,0,0,0,0-.21c0-.16-.08-.33-.13-.52a9.77,9.77,0,0,0-.44-1.16c-.16-.37-.36-.75-.53-1.07s-.29-.56-.38-.76c-.17-.4-.11-.57.48-.22a13.33,13.33,0,0,0-4-2.85,15.65,15.65,0,0,0-2.73-1,18.69,18.69,0,0,0-2-.42l-.84-.11-.6-.07a46.61,46.61,0,0,0-4.72-.23c-3.14,0-6.26.22-9.44.44-1.06.56-5.19,1.23-9.46,2.17s-8.67,2.09-10.53,2.45l-.32.13a11.23,11.23,0,0,0-5.6,2.94,26.3,26.3,0,0,0-1.49,2.62,12.12,12.12,0,0,1,1.35.65c-.74.26-1.49.53-1.59,1-1.11,1.6.25,2.23,1.44,3.42.68.45.58,1.64,1.48,2-.46.16-.68.23-1.13.41.22.61,1.21-.9,1.34.21-.52-.06-.82.52-1.26.7.52.72,1.62-.38,1.91.46-.15.27-1.69-.56-1.31.48.08.2.5,0,.72-.05-1.15.92-1.36,2.17.27,2.71-.4.15-1.15,0-1.5.33h0c.22-.06.68,0,.87-.11l-.73.29.33.34a1.15,1.15,0,0,0,.64,0l-.48.19c.27.26.56.51.84.73.85.37,1.78,1.06,2.07,1C1615.29,204,1617.78,203.47,1620.22,202.79Z" transform="translate(-47.5 -116)"/><path class="cls-34" d="M1661.36,200.48c.4-.24.9-1.11.93-.24a19.57,19.57,0,0,1-1,4.66,23.67,23.67,0,0,0-1.15,5.14l.74-.57c-.52,1.94-1.07,3.95-1.63,6.05.24,0,.5,0,.78,0h.42a2.17,2.17,0,0,1,.38,0l1.9-.57,2.54-.78c1.76-.55,3.51-1.11,5.2-1.68a.78.78,0,0,1,.47-.69,42.53,42.53,0,0,1,5.06-1.25l.87-.37a1.44,1.44,0,0,0,.41-.64c.84-.22,1.58-.36,2.28-.48,2.34-1.09,4.6-2.14,6.71-3.25l.75-.41.46-.31.91-.62,1.83-1.28c2.43-1.73,4.84-3.58,7.27-5.55a23.48,23.48,0,0,1,2.77-3,49,49,0,0,1,5.34-2.53c-.67-.95-.2-2.18.17-3.38s.65-2.37-.29-3.17c1-.52,2.5-1.35,2.23-1.95a6.47,6.47,0,0,1,.55-6.71c.79-.85,2.69-1.14,2.8-1.69.16-.87-2-.32-1.82-1.19-7.22,4-13.76,8.59-21.43,11.9a16.4,16.4,0,0,1-2.93,1.79c-.72.37-1.54.77-2.44,1.18l-1.29.57-.17.15a4,4,0,0,1-.91.52l-.5.18s-.11.06-.09,0l0-.12a1.57,1.57,0,0,0,0-.23,5.21,5.21,0,0,1,.11-.77l0-.05a.53.53,0,0,0,0-.28l0,0-.06-.19-.28-.78c-.21-.51-.45-1-.69-1.5a18.69,18.69,0,0,0-1.64-2.72,14.66,14.66,0,0,0-1.93-2.1,20.78,20.78,0,0,0-4.34-2.43,9.47,9.47,0,0,1,.4,2.15l-.67-.85c-.24-.26-.48-.5-.71-.71a2.4,2.4,0,0,0-1.25-.74c-1.51-.65-2.07-.39-2.3.2a18,18,0,0,0-.28,2.48c.06,1-1.3,1.13-1.06,2.35-.47-.54-.77-.75-1.28-1.25-.24.23.23.52.63.81s.68.65.14.85a1.62,1.62,0,0,0-.75-.71c-.32-.18-.63-.35-.91-.54-.31.8,1.57,1.74.87,2.32-.18-.05-.3-.58-.51-1s-.47-.76-.86-.34c-.13.14.32.58.54.79a2.38,2.38,0,0,0-2.09-.39c-.46.23-.59.81-.36,1.7-.36-.33-.73-1.05-1.26-1.19v0c.21.17.48.58.67.7q-.36-.23-.72-.48c0,.16-.06.32-.08.48a1.24,1.24,0,0,0,.41.53l-.45-.3c0,.38-.1.75-.13,1.1.14.92-.1,2,.08,2.22a14.27,14.27,0,0,1,1.77,3.17c.24.59.43,1.19.62,1.79,0,.15.07.31.11.46l.11.34a3.2,3.2,0,0,1,.1.42,6.35,6.35,0,0,1,.16.87l-.06,2,0,1v.5A2.22,2.22,0,0,1,1661.36,200.48Z" transform="translate(-47.5 -116)"/><path class="cls-35" d="M1662.45,190.72a2,2,0,0,0-1.86-2.27,9.9,9.9,0,0,0-3.12,0c-.62.19-.66.63-.83,1.22-.41,1.37-.88,2.42.11,3.63a14.81,14.81,0,0,0,4.21,3.25c.41.22.39-.39.34-.61a1.79,1.79,0,0,0-.81-1.11,16,16,0,0,1-2.32-1.57c-.26-.21-.91-.58-1-.86-.27-.21-.18-.25.26-.13l.18-.62c.29-.95.24-1.35,1.29-1.42.48,0,1,0,1.44,0h.48c.61.17.73-.1.36-.8-.14.54,1,2.08,1.22,1.29Z" transform="translate(-47.5 -116)"/><path class="cls-35" d="M1642.91,182.59a28.72,28.72,0,0,1,3.3-.65,2.14,2.14,0,0,0,1.72-1.36c.35-.63,1.07-1.47,1.09-2.22a2.13,2.13,0,0,0-1.17-1.71c-.59-.41-2.45.23-1.65.78s.92,1,.4,2a11.37,11.37,0,0,1-1,1.7l.56-.33c-1.28.31-2.59.39-3.87.77s-.31,1.34.66,1.05Z" transform="translate(-47.5 -116)"/><path class="cls-35" d="M1639.87,183l.76-.13c.24,0-.47-.5-.51-.53-.28-.16-.8-.52-1.15-.46l-.76.13c-.24,0,.47.5.51.53.28.16.8.52,1.15.46Z" transform="translate(-47.5 -116)"/><path class="cls-35" d="M1646.52,182.56a88.48,88.48,0,0,0-24.27.24c-5.27.7-10.35,2-12.9,7.07-.51,1,1.44,1.12,1.86.3,3.19-6.39,12.06-6.18,18.26-6.63a76,76,0,0,1,16.38.51c1,.14,2-1.3.67-1.49Z" transform="translate(-47.5 -116)"/><path class="cls-35" d="M1608.59,203.47c6.59-1.63,13.48-3.83,20-.62.57.28,2.11-.91,1.54-1.19-6.8-3.37-14.09-1.1-21,.62-.67.17-1.73,1.5-.47,1.19Z" transform="translate(-47.5 -116)"/><path class="cls-35" d="M1675.15,194.25c5.06-.34,10.11-.75,15.16-1.27,2.87-.3,7.17.08,9.69-1.54,1.29-.83,5.38-6.15,2.8-7.18-1.06-.43-2.08,1.25-.93,1.71a9.72,9.72,0,0,0-1.84,2.61,4.4,4.4,0,0,1-4.08,1.92,46.87,46.87,0,0,1-6.62.72c-4.73.48-9.46.86-14.2,1.18-1.2.08-1.27,1.94,0,1.85Z" transform="translate(-47.5 -116)"/><path class="cls-35" d="M1674.88,212.17c5.47-1.34,9.74-4.53,14.92-6.52,6.18-2.38,11.87-3.8,17.7-7.17,1.08-.62.39-2.14-.71-1.5-5.24,3-10.42,4.7-16.11,6.61s-10.17,5.48-16,6.9c-1.15.28-1.06,2,.21,1.68Z" transform="translate(-47.5 -116)"/><path class="cls-34" d="M1636.78,208.2c.21-.35.31-.75.56-.82.67,0,.43,1.34,1.12,1.28l.34-.55c.26.45.49,1,.79,1.47a13.14,13.14,0,0,0,2.55.68c.08-.22.15-.43.27-.47.39,0,.75.39,1.19.64l.25,0a1.86,1.86,0,0,0,.27-.44,2.52,2.52,0,0,1,.52.36,40.72,40.72,0,0,0,8.3-1.94,7.62,7.62,0,0,1,1.8-1.14c.76-.1,1.61.45,2.31.63.23-2.29,2-3.23,1.89-5.58.4.1,1,.21,1.11-.43.24-2,.72-4.16,1.7-5.3.37-.27.92.57,1,.18.21-.62-.46-1.39-.24-2a14.34,14.34,0,0,0-3.77-.48,18,18,0,0,1-3.83-.45c-.55.39-2.37.28-4.18-.26a11.39,11.39,0,0,1-4.14-2l-.14,0a3.11,3.11,0,0,0-2.77-.65c-.59.25-1.26.58-1.94.87-.08.41-.18.81-.28,1.2-.28-.27-.57-.53-.94-.29-1.25.27-1.61,1.46-2.27,2.93-.21.71-1.13,1.34-1.22,2.14-.23-.2-.33-.32-.55-.53-.43.5.94.31.14,1-.1-.37-.59-.26-.82-.48-.46.77.65.93.09,1.59-.27.07,0-1.48-.69-.66-.15.16.09.39.2.5a1.5,1.5,0,0,0-2.07,1.62c-.24-.23-.32-.87-.68-1h0c.11.14.2.5.32.61l-.43-.41-.2.41a.84.84,0,0,0,.19.48l-.29-.27a10.11,10.11,0,0,0-.37,1c-.06.84-.31,1.95-.11,2.14A20.54,20.54,0,0,0,1636.78,208.2Z" transform="translate(-47.5 -116)"/><path class="cls-35" d="M1679.8,200.81c-2.33-5.75-4.83-11-8.9-15.76-2.68-3.13-4.72-6.17-8.94-6.9-5.6-1-11.68-.45-17.35-.57-2,0-8-.49-5.08,3.26,2.25,2.87,8.22,3.07,11.33,3.78,4,.92,12.89,2.71,11.08,8.55-2.12,6.84-10.38.75-13.74-1.94-1.66-1.32-4.62-3.95-7-3.47-4.46.89-1,7,1,8.75.41.36,1.89.19,1.92.21-1.29-1.15-4.26-5-2.87-7,1.84-2.65,6.86,2.86,8.29,3.95a15,15,0,0,0,6.79,3.16c6.31,1,11.21-5.5,4.47-9.4-3.06-1.77-6.69-2.54-10.1-3.28-2.18-.47-10.95-2.58-9.87-5.17.69-1.67,9.59-.77,11.18-.73,3.56.07,6.77,0,10.19,1s4.63,2.94,6.86,5.55c4,4.71,6.52,9.9,8.85,15.64.2.5,2,.3,2,.33Z" transform="translate(-47.5 -116)"/><path class="cls-35" d="M1642.6,195.19c-1.56-1.5-2.75-4.19-5.38-3.55-3.62.89-2.34,7.06-1.84,9.49l1.89-.54c-1.26-2-5-4.08-7-1.65-2.51,3,1.86,11.65,4.35,13.81,3.37,2.91,9.63,3.82,13.74,2.2,6.5-2.58,8.53-10.18,13.46-14.54.85-.76-1-.88-1.54-.44-4.15,3.68-6.54,11.52-11.74,13.67-4.73,2-11.27.49-14-3.91a20.68,20.68,0,0,1-2-5.35l-.42-1.57c-.92-2.26.2-2.77,3.36-1.55.32.51,2,.14,1.89-.54-.23-1.12-1.3-6.46-.27-7,1.42-.71,2.94,1.37,3.72,2.11.5.49,2.35-.17,1.82-.67Z" transform="translate(-47.5 -116)"/><path class="cls-25" d="M1663.13,202.88a3.88,3.88,0,0,1,.66.74c.07.45-1-.43-.87,0l.4.52a5.93,5.93,0,0,1-1-.46,2.74,2.74,0,0,0-.37.79,2.81,2.81,0,0,1,.25.48c0,.19-.25.08-.38,0v.13l.18.48a.4.4,0,0,1-.21-.08,7.25,7.25,0,0,1-2.76,4.55,4,4,0,0,1-1.24,1.33c-.59.16-1.17-.43-1.63-.66a6,6,0,0,1-1.49,2.53,5.64,5.64,0,0,0-1.54,2.51c-.44-.25-1.09-.61-1.41,0-1,1.68-2.35,3.6-4.5,3.66-.76-.12-1.16-1.44-1.59-1.25a1,1,0,0,0-.38,1c0,.41,0,.84-.36,1a17.1,17.1,0,0,0,7.29,3.82,30.53,30.53,0,0,0,8.19.86c.95-.5,4.62-1,8.23-2.71a41.25,41.25,0,0,0,7.62-4.89l.17-.2a5.74,5.74,0,0,0,2.36-4,17.2,17.2,0,0,0-.51-2.36,12.93,12.93,0,0,1-1.29-.18c.35-.37.68-.74.45-1.14-.2-1.42-1.5-1.58-3-2.19-.71-.19-1.37-1.08-2.16-1.18l.47-.52c-.51-.4-.23.9-1,.11.36-.06.2-.54.38-.74-.78-.42-.81.57-1.49,0-.09-.23,1.4.08.54-.59-.18-.13-.35.07-.44.16.2-.86-.44-1.78-1.82-1.87.17-.17.74-.21.76-.51h0c-.11.09-.42.15-.49.24l.29-.33-.42-.19a.65.65,0,0,0-.4.13l.19-.21c-.33-.14-.67-.26-1-.37-.77-.1-1.78-.46-1.9-.33C1664.81,201.7,1663.81,202.33,1663.13,202.88Z" transform="translate(-47.5 -116)"/><path class="cls-35" d="M1662.93,199.76a1.74,1.74,0,0,1,.51,2c-.13.66-.28,1.31-.44,2-.32,1.3-.71,2.59-1.11,3.87-.2.64,1.28,1.77,1.65,1.09.46-.85,4-6.89,5.4-6.48,2.39.71-3.08,7.81-3.6,8.6-.41.63.86,1.78,1.44,1.35,1.26-.94,2.51-1.88,3.85-2.71.66-.4,1.33-.8,2-1.14,1.08-.52,3.34-2.41,2.72-.28-.88,3-4.24,5.89-6.63,7.68-.75.56.69,1.92,1.31,1.45,2.24-1.68,8.93-7,7.21-10.41-2-4-10,2.62-11.8,4l1.44,1.34c1.58-2.4,4-5.17,4.86-7.92a2.93,2.93,0,0,0-.77-3.45c-3.35-2.71-7.83,4.56-9,6.77l1.64,1.09c.74-2.4,3.1-7.31,1.28-9.74-.87-1.16-2.64-1.58-3.53-.31-.49.69,1.09,1.91,1.57,1.24Z" transform="translate(-47.5 -116)"/><path class="cls-35" d="M1673.59,215.48q4.07.38.71,2.54a10.75,10.75,0,0,1-4.24,1.88,29.12,29.12,0,0,1-5.74.84,29.65,29.65,0,0,1-7,0c-4.42-.89-6.69-5.45-8.39-9-.44-.91-1.79-1-1.21.2,1.78,3.73,4.34,9,8.64,10.3,4.55,1.36,11.73.51,16.09-1.1,2.14-.78,6.8-3.77,5.33-6.89-1-2.08-3.74-1.18-5.37-.45-.66.3.41,2,1.16,1.63Z" transform="translate(-47.5 -116)"/><path class="cls-28" d="M1458.48,229.64c-.25-.32-.76-.43-.47-.9,1-1.32,2.93-1.16,3.9-2.58l-.36-.56c1.11-.67,2.33-1.34,3.49-2.13a45.79,45.79,0,0,0,4.49-6c-.23-.09-.42-.2-.34-.44a31.86,31.86,0,0,1,2.34-3.14l.27-.6a.84.84,0,0,0-.31-.48c.37-.55.73-1,1.08-1.44a58.41,58.41,0,0,0,2.88-10.58,37.43,37.43,0,0,0,.34-11.87c-.28-.88-.57-1.74-.91-2.55s-.64-1.59-.9-2.35a47.9,47.9,0,0,0-2.09-7.28,1.89,1.89,0,0,1-1.65.12,17.92,17.92,0,0,1-1.92-.7c-1.31-.49-2.54-.72-3.24.31a9.27,9.27,0,0,0-1.18-1.56c-.45-.42-.87-.68-1.13-.49a9.75,9.75,0,0,1-2.84,1.38,8.75,8.75,0,0,1-1.65.3,6.43,6.43,0,0,1-.88,0,7.07,7.07,0,0,1-.91-.06,3.28,3.28,0,0,1-1.16-.87c-.36-.3-.68-.59-.89-.48a.32.32,0,0,0-.25.43c0,.2,0,.41.1.62.08.43.12.83-.2,1a17.08,17.08,0,0,1,5.55,6.16,13.45,13.45,0,0,1,1.36,4c0,.33.09.67.1,1s0,.64,0,1a13.12,13.12,0,0,1-.33,2.35,10.91,10.91,0,0,1-.7,4.3,36.71,36.71,0,0,1-3.4,7.51,40.56,40.56,0,0,1-5.23,7,31.58,31.58,0,0,1-4.59,4.07l-.35.31c-1.11.82-2.39,1.77-3.45,2.62a20.86,20.86,0,0,0-2.63,2.35l-.84,1.24c-.27.41-.66.83-.9,1.2a8.51,8.51,0,0,0,1.29.86c-.44.1-1,.2-1.22.27a.87.87,0,0,0-.61.39c-.75.5-1.08.92-1,1.56a5.31,5.31,0,0,0,1,2.15,1.48,1.48,0,0,1,.32,1.2,1.1,1.1,0,0,0,.78,1.18,10.36,10.36,0,0,1-2.49-.11c-.1.32.69.34,1.4.3s1.34-.11,1,.47c-1-.15-2.16.22-3.22-.05.1.49,1,.75,1.94.83s1.76.05,1.73.5a4.54,4.54,0,0,1-1.92-.29c-.74-.2-1.39-.4-1.59.12-.08.22,1.09.42,1.69.43-1.83.15-3.3,0-4,.17a.44.44,0,0,0-.32.67,3.37,3.37,0,0,0,1.5,1.39,7.88,7.88,0,0,1-2.14-1c-.7-.45-1.34-1-1.88-1.35v0a8.28,8.28,0,0,0,2,1.61,8.56,8.56,0,0,1-2-1.3,5.94,5.94,0,0,0,.12.67,5.26,5.26,0,0,0,1.53,1.19,9.86,9.86,0,0,1-1.43-.86,6.17,6.17,0,0,0,.88,1.68c1.65,1.59,3.8,2.91,5.08,3a18.07,18.07,0,0,0,3.89,0l.91-.12.78-.13c.52-.09,1-.19,1.53-.32a30.68,30.68,0,0,0,5.55-1.93,40.4,40.4,0,0,0,4.64-2.54C1455.92,231.54,1457.21,230.64,1458.48,229.64Z" transform="translate(-47.5 -116)"/><path class="cls-28" d="M1434.45,196.21a3.76,3.76,0,0,1-.07-1c.2-.4.52.93.72.52l0-.65c.21.26.43.61.65.91a5.18,5.18,0,0,0,1-.53,1.94,1.94,0,0,1,0-.55c.15-.18.37.05.59.11l.09-.12a4.36,4.36,0,0,0,0-.51.61.61,0,0,1,.27.15l1.68-2.05c.57-.71,1.16-1.43,1.8-2.11a5.28,5.28,0,0,1,.92-1.36c.4-.18.75.33,1,.49a8.68,8.68,0,0,1,1.19-2.65,8.64,8.64,0,0,0,1.27-2.62c.32.16.77.43,1.06-.14.87-1.74,2.06-3.75,4-4,.67.07,1,1.28,1.37,1.08a1.15,1.15,0,0,0,.4-.94c0-.4,0-.81.38-1a12.65,12.65,0,0,0-6.09-3,38.08,38.08,0,0,0-5.29-.54,4.55,4.55,0,0,1-1.71.58c-.77.16-1.64.29-2.56.4a21.34,21.34,0,0,1-4.51.22l-.14,0a2.62,2.62,0,0,0-2.45,1.24c-.25.59-.47,1.29-.68,2,.21.35.41.71.58,1.06-.32,0-.64,0-.69.43-.49,1.09.1,2.16.6,3.67a23.59,23.59,0,0,0,.61,2.37H1430c.09.65.51-.42.56.65-.21-.21-.34.22-.53.21.22.87.68.22.8,1.09-.06.21-.7-1.08-.54,0,0,.22.21.22.3.22-.49.42-.56,1.5.12,2.57-.17,0-.48-.41-.63-.23v0c.09,0,.28.21.36.21h-.3l.14.43c.09.12.19.22.26.22h-.19c.11.34.23.67.35,1a10.78,10.78,0,0,0,.85,1.63A8.11,8.11,0,0,0,1434.45,196.21Z" transform="translate(-47.5 -116)"/><path class="cls-26" d="M1447.12,162.4c-3.45,3.81-10.19,7.27-15.46,5.42-.74-.26-2.88-1.75-2.87-2.51.17-.84.53-1,1.06-.51.67.13.83.55.5,1.25.23,1.44-.32,3.4-.56,4.83-.31,1.82-.74,3.42.57,4.93a2.63,2.63,0,0,0,3.2,1,4.09,4.09,0,0,0,1.66-2.13c.36-.7.67-1.79,1.55-2s.45,0,.64.69a3,3,0,0,0,1.53,2.27c1.91.89,3.08-1.31,4.59-2l-1.15-.74c1.16,1.61-.06,4.14-.57,5.75s-.87,3.07-1.49,4.52c-1.33,3.1-4.08,5.11-7.56,4.12-4.77-1.36-2.28-6.89,1-8,1.26-.42,4.14-.86,5.37-.23,2.66,1.38,1.21,4.1.44,6.2a89.64,89.64,0,0,0-5.41,21c-.43,3.91-.1,9.36,4.93,9.91,3.76.41,10.4-3.78,9-8.19-.29-.9-1.39-2.24-2.48-1.92-2.27.66-1,5.44-.8,6.89s1.08,4.77-.78,5.43c-1.27.44-3.22-1.76-4.44-2.13-1.43-.44-3.84-.07-3.38,1.92.29,1.25,1.65,2.05,2.69,2.55a14.3,14.3,0,0,1,1.71.71,4.21,4.21,0,0,1,1.59,3.45,8.94,8.94,0,0,1-1.15,5.37,5,5,0,0,1-3.94,2.36c-2.84.05-3.42-2.68-1.79-4.43,2.22-2.38,7.76-2.12,10.74-2.42,6.34-.63,11.6-2.61,16.09-7.25,7.73-8,12.86-21.47,6.49-31.75-.92-1.48-7.16-8.75-9-4.64-.54,1.2.48,2.57,1.32,3.32,1.81,1.62,4.92,2.06,7.28,1.87,5.15-.39,7.55-5.34,3.3-8.76s-11.43-4.43-16.61-3.92c-1.65.16-4.15.85-3.36,3,.6,1.63,2.53,2.36,4.06,2.63,6.1,1.1,15.22,1.68,19.45-3.9,3.35-4.42-.21-8.18-4.63-9.33a32.68,32.68,0,0,0-10-1.16,7.36,7.36,0,0,0-4.08,1.26c-1.32,1-1.78,2.68-3.17,3.65-.39.28.91,1.9,1.39,1.56,2.27-1.59,2.53-4,5.6-4.66,2.81-.6,6,0,8.79.45,3,.54,7.36,1.51,5.37,5.54-1.3,2.62-4.08,4.21-6.82,4.93a25.63,25.63,0,0,1-8.1.56c-1.5-.09-4,.07-5.32-.6-2.24-1.1,0-2,1.4-2.25a24.38,24.38,0,0,1,8.55.5c2.89.57,11,2.74,7.3,7-1.68,1.89-6,2.75-8.33,1.5-.47-.26-2-1.29-1.65-2.15.58-1.56,3.66.62,4.12,1a12.14,12.14,0,0,1,3.16,4.73c2.16,5.41,1.43,11.55-.69,16.85A33.56,33.56,0,0,1,1458.5,219c-4.55,3.77-9.71,4.73-15.43,5.28-3.19.31-11.09.49-10.25,5.57a5.49,5.49,0,0,0,6.93,4.07c4-1.45,4.78-7.11,3.28-10.59a7,7,0,0,0-2.4-3,10.21,10.21,0,0,0-1.94-.94c-1.09-.47-1.32-.82-.28-1.47,1.26-.79,2.68.21,3.73.88.88.57,2.56,1.74,3.67.93,1.61-1.17.54-5.09.3-6.56-.21-1.28-.73-3.19-.13-4.4,1.12-2.29,0,1.34-.41,1.86a9.44,9.44,0,0,1-6.83,3.9c-4.63.13-3.25-6-2.85-8.8a76.27,76.27,0,0,1,1.94-9.22c.79-2.89,1.73-5.75,2.74-8.58.8-2.2,2.23-4.76,1.4-7.15-1.36-4-7-4.4-10.24-2.83-3.65,1.74-3.92,6.36-1.22,9,2.87,2.85,7.86,3,10.28-.51,1.54-2.22,2.13-5.22,2.91-7.75.69-2.22,1-4-.41-5.93-.2-.27-.74-.92-1.15-.74a12.84,12.84,0,0,0-2.13,1.59c-1.07.71-.67.45-.9-.13s-.09-1.12-.68-1.77c-1.48-1.68-3.29-1-4.35.71-.49.79-2.53,5.05-3.12,1.41-.14-.88.42-2.22.54-3.12.16-1.12.28-2.25.34-3.38.1-1.75,0-3.69-1.8-4.6a1.83,1.83,0,0,0-2.7,2.06c.32,1.85,2.28,3.33,3.87,4.05,5.81,2.62,13.31-.57,17.3-5,.39-.42-1.06-1.92-1.39-1.55Z" transform="translate(-47.5 -116)"/><path class="cls-28" d="M75.4,813.24c-.3.27-.53.62-.78.63-.62-.11.07-1.35-.57-1.46l-.49.43c-.09-.47-.14-1-.24-1.55A10.78,10.78,0,0,0,71.26,810c-.14.19-.28.36-.39.38-.35-.09-.54-.54-.86-.89l-.23,0a2.55,2.55,0,0,0-.38.35,2.11,2.11,0,0,1-.33-.47,39.83,39.83,0,0,0-7.81-.23,7.3,7.3,0,0,1-1.91.58c-.68-.11-1.17-.87-1.67-1.24-1,2.06-2.86,2.37-3.7,4.56-.32-.23-.8-.57-1.13,0-1,1.68-2.3,3.55-3.74,4.13-.48.06-.66-1-1-.67-.49.45-.17,1.46-.65,1.92,2.35,2,5,2.45,7.07,3.82.63-.21,2.2.39,3.59,1.29a8.82,8.82,0,0,1,2.91,2.77l.11.08a2.58,2.58,0,0,0,2.25,1.19l2.05-.37c.2-.35.42-.69.64-1,.18.3.34.61.75.47,1.23,0,1.93-1,3-2.16.42-.6,1.46-1,1.8-1.68l.33.6c.55-.36-.76-.49.21-1,0,.37.45.37.59.62.66-.6-.29-1,.43-1.47.25,0-.5,1.35.41.75.19-.11,0-.37,0-.49a1.58,1.58,0,0,0,2.41-1c.14.26,0,.86.3,1h0c-.06-.14,0-.49-.1-.61l.25.46.33-.33a.75.75,0,0,0,0-.48l.18.31c.24-.27.46-.55.66-.82.32-.75.91-1.7.79-1.91A17.59,17.59,0,0,0,75.4,813.24Z" transform="translate(-47.5 -116)"/></svg>