<?xml version="1.0" encoding="utf-8"?>
<!-- Generator: Adobe Illustrator 16.0.0, SVG Export Plug-In . SVG Version: 6.00 Build 0)  -->
<!DOCTYPE svg PUBLIC "-//W3C//DTD SVG 1.1//EN" "http://www.w3.org/Graphics/SVG/1.1/DTD/svg11.dtd">
<svg version="1.1" xmlns="http://www.w3.org/2000/svg" xmlns:xlink="http://www.w3.org/1999/xlink" x="0px" y="0px" width="57.25px"
	 height="49px" viewBox="0 0 57.25 49" enable-background="new 0 0 57.25 49" xml:space="preserve">
<g id="Layer_1">
</g>
<g id="Isolation_Mode">
	<path fill="#FE1606" d="M55.53,18.484c-5.354-1.418-10.442-2.551-15.384-4.139c-4.487-1.441-7.069-4.653-7.659-9.523
		c-0.134-1.108-1.649-2.93-2.451-2.89c-1.655,0.085-4.202,0.785-4.722,1.965c-2.511,5.69-7.068,8.228-12.716,9.405
		c-2.819,0.587-5.674,1.056-8.536,1.372c-3.918,0.434-2.255,3.41-2.579,5.434c-0.369,2.292,0.993,2.853,3.03,2.941
		c4.842,0.213,9.683,0.527,14.512,0.934c2.679,0.226,3.445,1.504,1.807,3.925c-3.717,5.493-8.523,9.335-15.372,9.644
		c-3.499,0.16-4.589,1.742-4.175,4.938c0.162,1.251,0.208,2.519,0.373,4.638c5.624,0,10.969,0.004,16.313-0.002
		c0.358-0.002,0.69,0.012,0.997,0.045c8.971-3.297,20.056-2.293,28.983-0.99c0.826,0.121,1.379,0.498,1.721,0.996
		c1.782,0.276,4.021,1.121,4.28-2.248c0.254-3.299-0.37-5.477-4.452-6.198c-4.713-0.834-9.352-2.498-13.789-4.358
		c-4.002-1.679-6.25-5.252-8.068-9.706c2.158,0,3.822-0.081,5.473,0.015c5.89,0.343,11.8,0.525,17.649,1.21
		c3.59,0.42,4.793-0.878,4.631-4.204C55.342,20.547,55.487,19.396,55.53,18.484"/>
</g>
</svg>
